<svg xmlns="http://www.w3.org/2000/svg" width="512" height="512" viewBox="100 100 400 400" aria-labelledby="title desc" role="img">
  <defs>
    <linearGradient id="g1" x1="0" x2="1">
      <stop offset="0%" stop-color="#5ee7df" />
      <stop offset="100%" stop-color="#7f7fff" />
    </linearGradient>
    <linearGradient id="g2" x1="0" x2="1">
      <stop offset="0%" stop-color="#0f172a" stop-opacity="0.85" />
      <stop offset="100%" stop-color="#06102b" stop-opacity="0.6" />
    </linearGradient>
    <filter id="shadow" x="-50%" y="-50%" width="200%" height="200%">
      <feDropShadow dx="0" dy="6" stdDeviation="12" flood-color="#0b1220" flood-opacity="0.18" />
    </filter>
  </defs>

  <!-- background rounded card -->
  <rect x="24" y="24" width="448" height="448" rx="56" fill="none" />

  <!-- magnifying glass circle -->
  <g transform="translate(48,32)">
    <circle cx="224" cy="224" r="140" fill="url(#g1)" opacity="0.12" />
    <circle cx="224" cy="224" r="112" fill="white" opacity="0.02" />

    <!-- main glass rim -->
    <circle cx="224" cy="224" r="104" fill="none" stroke="url(#g1)" stroke-width="16" filter="url(#shadow)" />

    <!-- neuron core -->
    <circle cx="224" cy="192" r="14" fill="#0f172a" />

    <!-- neuron arms -->
    <path d="M224 192 C 160 140, 120 120, 96 160" stroke="#0f172a" stroke-width="6" fill="none" stroke-linecap="round" />
    <path d="M224 192 C 288 140, 336 120, 360 160" stroke="#0f172a" stroke-width="6" fill="none" stroke-linecap="round" />
    <path d="M224 192 C 210 256, 200 300, 152 318" stroke="#0f172a" stroke-width="6" fill="none" stroke-linecap="round" />
    <path d="M224 192 C 242 260, 280 300, 328 318" stroke="#0f172a" stroke-width="6" fill="none" stroke-linecap="round" />

    <!-- synaptic nodes -->
    <circle cx="96" cy="160" r="8" fill="#7f7fff" />
    <circle cx="360" cy="160" r="8" fill="#5ee7df" />
    <circle cx="152" cy="318" r="8" fill="#7f7fff" />
    <circle cx="328" cy="318" r="8" fill="#5ee7df" />

    <!-- magnifier handle -->
    <g transform="rotate(45 340 340)">
      <rect x="320" y="340" width="160" height="24" rx="12" fill="url(#g1)" />
      <rect x="320" y="340" width="160" height="24" rx="12" fill="none" stroke="#0f172a" stroke-opacity="0.08" />
    </g>
  </g>
</svg>
