<?xml version="1.0" encoding="UTF-8"?>
<svg version="1.1" xmlns="http://www.w3.org/2000/svg" width="512" height="200" viewBox="700 350 212 412">
<path d="M0 0 C8.50929956 0.20913046 8.50929956 0.20913046 12.73754883 2.67773438 C15.04104683 5.57554354 16.73521928 8.53325558 18.49926758 11.78710938 C20.27553182 14.3055883 22.17608859 16.7249871 24.06176758 19.16210938 C25.08256506 20.52738033 26.10069662 21.89464775 27.11645508 23.26367188 C30.93463026 28.38427666 34.81052543 33.46040103 38.68676758 38.53710938 C44.32627022 45.92805125 49.93547809 53.33897051 55.49926758 60.78710938 C57.43575184 63.37120477 59.37382251 65.95410941 61.31176758 68.53710938 C62.33523122 69.9016731 63.35866852 71.26625658 64.38208008 72.63085938 C64.89544922 73.31535156 65.40881836 73.99984375 65.93774414 74.70507812 C77.21850586 89.74609375 77.21850586 89.74609375 88.49926758 104.78710938 C88.49926758 70.79710937 88.49926758 36.80710937 88.49926758 1.78710938 C95.24926758 0.66210938 95.24926758 0.66210938 98.80395508 0.90820312 C99.8169165 0.97285767 99.8169165 0.97285767 100.8503418 1.03881836 C102.09968506 1.13078491 102.09968506 1.13078491 103.37426758 1.22460938 C104.78098001 1.32274774 106.18773146 1.42032774 107.59451294 1.51747131 C108.88308197 1.60645187 110.171651 1.69543243 111.49926758 1.78710938 C112.31877151 18.92841017 112.64927652 36.02607368 112.63208008 53.18554688 C112.63275604 55.6088563 112.63372848 58.03216566 112.63497925 60.45547485 C112.6364363 65.47211366 112.63436268 70.48873441 112.62963867 75.50537109 C112.62387412 81.94004904 112.62727478 88.37468588 112.63321114 94.80936241 C112.63681334 99.78488479 112.63568091 104.76039729 112.63308334 109.73591995 C112.63241662 112.11144643 112.63323361 114.48697381 112.6355629 116.86249924 C112.63809107 120.15689259 112.63424957 123.45121727 112.62866211 126.74560547 C112.63068634 127.72412476 112.63271057 128.70264404 112.63479614 129.71081543 C112.63197632 130.60436737 112.62915649 131.49791931 112.62625122 132.41854858 C112.62568568 133.58246156 112.62568568 133.58246156 112.62510872 134.76988792 C112.49926758 136.78710938 112.49926758 136.78710938 111.49926758 139.78710938 C89.31156206 141.41120944 89.31156206 141.41120944 83.37426758 137.98242188 C81.36372218 135.36033559 79.95389315 132.7511045 78.49926758 129.78710938 C77.11769228 127.8861046 75.69869404 126.01190189 74.24926758 124.16210938 C73.08283313 122.59825263 71.91645595 121.03435226 70.75170898 119.46923828 C68.48538141 116.42537922 66.21183395 113.38694026 63.93676758 110.34960938 C63.19064209 109.35320435 63.19064209 109.35320435 62.42944336 108.33666992 C58.19386883 102.69077711 53.91078297 97.08187102 49.62426758 91.47460938 C43.66921536 83.68294559 37.80213711 75.83227035 32.01538086 67.91479492 C31.47896973 67.18172119 30.94255859 66.44864746 30.38989258 65.69335938 C29.89295898 65.01402344 29.39602539 64.3346875 28.8840332 63.63476562 C27.6704443 62.01550596 26.39415139 60.44363479 25.10864258 58.88085938 C23.49926758 56.78710938 23.49926758 56.78710938 23.49926758 54.78710938 C22.50926758 54.45710938 21.51926758 54.12710938 20.49926758 53.78710938 C19.55861497 52.17456204 18.6263632 50.55618356 17.74926758 48.90820312 C15.39846108 44.91917835 12.40265589 41.38372242 9.49926758 37.78710938 C8.70856049 40.5787025 8.37668259 43.04592381 8.38574219 45.94389343 C8.38581268 46.76411987 8.38588318 47.58434631 8.38595581 48.4294281 C8.39112213 49.32049759 8.39628845 50.21156708 8.40161133 51.12963867 C8.40380173 52.54724991 8.40380173 52.54724991 8.40603638 53.99349976 C8.4098395 56.04349477 8.41595304 58.09348651 8.42410278 60.14346886 C8.43685188 63.38274671 8.44337789 66.62198369 8.44824219 69.86128235 C8.45967431 76.73240971 8.47893037 83.60350336 8.49926758 90.47460938 C8.52281964 98.44518093 8.54321638 106.41573351 8.5552063 114.38633156 C8.56171738 117.58665629 8.57422334 120.78692304 8.58691406 123.98722839 C8.59054426 125.93573963 8.59389628 127.88425141 8.59692383 129.83276367 C8.60209015 130.72990585 8.60725647 131.62704803 8.61257935 132.55137634 C8.61275988 134.63029716 8.56174483 136.70912757 8.49926758 138.78710938 C7.49926758 139.78710938 7.49926758 139.78710938 5.18261719 139.90063477 C4.18238525 139.89539795 3.18215332 139.89016113 2.15161133 139.88476562 C1.07202148 139.88154297 -0.00756836 139.87832031 -1.11987305 139.875 C-2.25618164 139.86662109 -3.39249023 139.85824219 -4.56323242 139.84960938 C-5.7034082 139.84509766 -6.84358398 139.84058594 -8.01831055 139.8359375 C-10.84583594 139.82410685 -13.67325882 139.80762347 -16.50073242 139.78710938 C-16.52406063 121.81141705 -16.54171121 103.83572863 -16.55254459 85.86002445 C-16.55770772 77.51418109 -16.56475073 69.16834711 -16.57617188 60.82250977 C-16.58611821 53.55092168 -16.59258573 46.27934038 -16.59482092 39.00774568 C-16.59612811 35.15511416 -16.5992145 31.30250209 -16.60646248 27.44987679 C-16.6132219 23.82778266 -16.61534954 20.20571609 -16.6138401 16.58361626 C-16.61424879 14.61213709 -16.61964439 12.64066097 -16.62515259 10.66918945 C-16.62377792 9.50666153 -16.62240326 8.34413361 -16.62098694 7.14637756 C-16.62190873 6.1296399 -16.62283052 5.11290224 -16.62378025 4.06535435 C-16.29368556 -2.04638748 -4.61544547 0.04892585 0 0 Z M7.49926758 34.78710938 C8.49926758 36.78710938 8.49926758 36.78710938 8.49926758 36.78710938 Z " fill="#0092FB" transform="translate(320.500732421875,425.212890625)"/>
<path d="M0 0 C1.69857316 1.2924414 3.3790244 2.61147788 5 4 C4.47868283 8.95725232 2.14796788 12.28207993 -0.5625 16.3125 C-1.19961914 17.28026367 -1.19961914 17.28026367 -1.84960938 18.26757812 C-2.89266393 19.84973954 -3.94537872 21.42552501 -5 23 C-5.89589844 22.401875 -6.79179688 21.80375 -7.71484375 21.1875 C-9.34099609 20.1046875 -9.34099609 20.1046875 -11 19 C-11.76441406 18.484375 -12.52882813 17.96875 -13.31640625 17.4375 C-25.77925398 9.46127746 -40.25941025 6.51362886 -54.9375 8.625 C-61.26544149 10.02807036 -65.83290816 12.88847462 -70.4375 17.375 C-73.24421263 22.09027721 -73.42305805 26.31137827 -72.1875 31.5625 C-69.91632561 37.359303 -65.38762316 39.36122996 -60 42 C-56.26539561 43.4116479 -52.48217659 44.47768061 -48.625 45.5 C-46.5051552 46.09486278 -44.38536438 46.68991793 -42.265625 47.28515625 C-39.23535057 48.11797079 -36.20363612 48.94494517 -33.16992188 49.76513672 C-3.22270547 57.91622453 -3.22270547 57.91622453 5 71 C10.03214873 80.0236988 11.10484777 90.1377148 8.9375 100.1875 C5.46689942 111.94725822 -1.06014773 119.60512402 -11.7734375 125.53515625 C-30.71688027 134.63543758 -53.78908652 133.43762756 -73.515625 127.32421875 C-83.36470086 123.58112826 -92.57584172 118.59019377 -100 111 C-98.18633597 106.87235084 -95.50853382 103.37940795 -92.875 99.75 C-92.40707031 99.1003125 -91.93914063 98.450625 -91.45703125 97.78125 C-90.30725718 96.18564517 -89.15397434 94.59256975 -88 93 C-87.53851562 93.36351562 -87.07703125 93.72703125 -86.6015625 94.1015625 C-70.63461489 106.40810315 -54.31379982 112.42866284 -34 111 C-26.78238816 109.65327359 -19.37748396 106.26904044 -15 100.25 C-13.33927124 94.85263154 -13.34490326 90.22732891 -14.9375 84.8125 C-22.48282306 74.5234231 -36.37114933 72.4715513 -48.03125 69.4140625 C-84.02789681 59.87175937 -84.02789681 59.87175937 -91.75 47.125 C-92.13671875 46.50882812 -92.5234375 45.89265625 -92.921875 45.2578125 C-97.06515733 36.58093864 -97.53138455 25.54735668 -95.34765625 16.2109375 C-94.41472697 13.94468011 -93.36173065 12.03657062 -92 10 C-91.49082031 9.23300781 -90.98164062 8.46601563 -90.45703125 7.67578125 C-69.71127513 -21.04546007 -27.02059576 -15.7748518 0 0 Z " fill="#00B6F9" transform="translate(945,436)"/>
<path d="M0 0 C8.59157265 7.91166402 13.0073442 19.099221 15.25 30.3125 C15.25 35.9225 15.25 41.5325 15.25 47.3125 C-10.82 47.3125 -36.89 47.3125 -63.75 47.3125 C-59.71707657 61.05732821 -59.71707657 61.05732821 -49.25 69.8125 C-40.40175171 74.38918015 -29.20625251 74.74479898 -19.625 72.25 C-14.61143938 70.55966696 -10.42100004 67.74284967 -6.09765625 64.73828125 C-3.75 63.3125 -3.75 63.3125 -0.75 63.3125 C1.39307932 64.75843304 3.40901481 66.22125013 5.4375 67.8125 C5.99630859 68.24175781 6.55511719 68.67101562 7.13085938 69.11328125 C8.50885847 70.17328055 9.88009407 71.24206188 11.25 72.3125 C7.94416386 81.80867638 -0.74814167 85.63554602 -9.28515625 89.83203125 C-23.84079736 96.0514089 -39.50427796 95.33265383 -54.33203125 90.46484375 C-68.23162252 84.84171663 -77.03195421 75.03952268 -82.94921875 61.5859375 C-88.0162052 47.82506904 -87.81808595 30.70349214 -81.75 17.3125 C-79.97674545 13.79089616 -78.01601427 10.53743215 -75.75 7.3125 C-75.31042969 6.67699219 -74.87085938 6.04148437 -74.41796875 5.38671875 C-67.20633575 -3.98632587 -55.64201065 -8.93371986 -44.375 -11.4375 C-27.69913379 -12.58755974 -13.53484363 -10.40679088 0 0 Z M-56.75 15.3125 C-60.37349667 20.12318218 -61.72792233 23.18003396 -62.75 29.3125 C-44.6 29.3125 -26.45 29.3125 -7.75 29.3125 C-8.77429434 22.1424396 -9.95899877 17.40146396 -15.6484375 12.765625 C-28.03140674 4.70008948 -45.90860412 4.16134995 -56.75 15.3125 Z " fill="#00BEFB" transform="translate(1165.75,473.6875)"/>
<path d="M0 0 C0 27.72 0 55.44 0 84 C19.2917382 66.1419582 19.2917382 66.1419582 37.95703125 44.03125 C40.29749733 40.83836154 42.32267293 38.49281866 46 37 C54.58323642 35.74323393 63.37917099 36.38598084 72 37 C68.84737708 42.1878605 65.03558916 46.16385853 60.6875 50.375 C59.32496883 51.71426214 57.96426204 53.05538312 56.60546875 54.3984375 C55.69510864 55.29054932 55.69510864 55.29054932 54.76635742 56.20068359 C52.30953988 58.70334362 50.04954516 61.3590705 47.76757812 64.02050781 C45.99573359 66.0047779 44.14601581 67.83893048 42.21875 69.671875 C41.52845703 70.34089844 40.83816406 71.00992188 40.12695312 71.69921875 C38.72465334 73.05129843 37.31204052 74.39277436 35.88867188 75.72265625 C35.24478516 76.34527344 34.60089844 76.96789062 33.9375 77.609375 C33.34839844 78.16592773 32.75929688 78.72248047 32.15234375 79.29589844 C30.78517503 80.93459271 30.78517503 80.93459271 31.16333008 82.99462891 C32.0468547 85.11230363 33.03799022 86.66915978 34.44921875 88.4765625 C34.9606543 89.13825439 35.47208984 89.79994629 35.99902344 90.48168945 C36.83481934 91.54262817 36.83481934 91.54262817 37.6875 92.625 C38.2640332 93.3677417 38.84056641 94.1104834 39.43457031 94.87573242 C41.28361105 97.25531328 43.14147856 99.62781927 45 102 C47.41860048 105.10266206 49.83406564 108.20776171 52.25 111.3125 C52.83595947 112.06450684 53.42191895 112.81651367 54.02563477 113.59130859 C72 136.68057776 72 136.68057776 72 140 C71.34 140 70.68 140 70 140 C70 139.34 70 138.68 70 138 C68.91900024 138.0628418 68.91900024 138.0628418 67.81616211 138.12695312 C64.52385163 138.29412114 61.2324335 138.39754788 57.9375 138.5 C56.80376953 138.56703125 55.67003906 138.6340625 54.50195312 138.703125 C46.22086149 138.89626999 46.22086149 138.89626999 42.75024414 136.34838867 C40.95825258 134.32056504 39.45905725 132.27627025 38 130 C37.38253906 129.19175781 36.76507812 128.38351562 36.12890625 127.55078125 C35.61199219 126.81214844 35.09507813 126.07351563 34.5625 125.3125 C30.32863749 119.38677593 25.91977516 113.60054272 21.5 107.8125 C20.7685376 106.85448486 20.0370752 105.89646973 19.28344727 104.90942383 C17.52323757 102.60556181 15.76213866 100.30238678 14 98 C8.41638448 101.19426397 3.66400207 104.63396672 0 110 C-1.07170925 114.54662384 -0.90971547 118.7966378 -0.625 123.4375 C-0.59277344 124.62021484 -0.56054688 125.80292969 -0.52734375 127.02148438 C-0.5572622 132.68810586 -0.5572622 132.68810586 1 138 C-6 139 -6 139 -23 138 C-23 92.46 -23 46.92 -23 0 C-2 -1 -2 -1 0 0 Z " fill="#00C1FD" transform="translate(1239,427)"/>
<path d="M0 0 C13.64943849 -0.5973012 26.47028686 3.63862582 36.84765625 12.39453125 C47.30984158 22.33196747 51.66413987 34.91374026 52.6171875 49.1015625 C52.59551886 52.54687571 52.11113499 55.80369514 51.59765625 59.20703125 C50.64996368 59.21733871 49.70227112 59.22764618 48.7258606 59.23826599 C39.80843506 59.33588917 30.89108104 59.43861259 21.97377205 59.54637051 C17.3889522 59.60160901 12.80412598 59.6550305 8.21923828 59.7043457 C3.79718232 59.75197557 -0.62479474 59.80431788 -5.04675674 59.859972 C-6.73648242 59.8804018 -8.42622975 59.89911384 -10.1159935 59.91610527 C-12.47698567 59.94013547 -14.83782808 59.97019181 -17.19873047 60.00170898 C-18.25392883 60.01034218 -18.25392883 60.01034218 -19.33044434 60.01914978 C-22.98987653 60.03191682 -22.98987653 60.03191682 -26.40234375 61.20703125 C-25.80597284 62.79331733 -25.1998845 64.37595184 -24.58984375 65.95703125 C-24.25339844 66.83875 -23.91695312 67.72046875 -23.5703125 68.62890625 C-22.43346546 71.13833451 -21.05823015 73.02448757 -19.40234375 75.20703125 C-19.40234375 75.86703125 -19.40234375 76.52703125 -19.40234375 77.20703125 C-18.56703125 77.62275391 -18.56703125 77.62275391 -17.71484375 78.046875 C-16.12734202 78.84330746 -14.54420335 79.64847847 -12.96484375 80.4609375 C-12.11921875 80.89277344 -11.27359375 81.32460938 -10.40234375 81.76953125 C-9.55671875 82.20394531 -8.71109375 82.63835937 -7.83984375 83.0859375 C0.53213996 86.93651334 11.03496949 86.10963693 19.59765625 83.20703125 C25.01804914 80.96660219 29.24644171 78.12312434 33.59765625 74.20703125 C37.18278731 75.82887626 40.18757948 77.99959364 43.34765625 80.33203125 C44.82492187 81.41871094 44.82492187 81.41871094 46.33203125 82.52734375 C47.0796875 83.08164062 47.82734375 83.6359375 48.59765625 84.20703125 C43.37543571 95.43236513 31.36647423 100.33312484 20.32421875 104.41796875 C15.18224552 105.50673038 10.21520963 105.54567865 4.97265625 105.51953125 C3.379375 105.51759766 3.379375 105.51759766 1.75390625 105.515625 C-5.99911135 105.42084483 -12.99734252 104.63679728 -20.40234375 102.20703125 C-20.40234375 101.54703125 -20.40234375 100.88703125 -20.40234375 100.20703125 C-21.48708984 99.82417969 -21.48708984 99.82417969 -22.59375 99.43359375 C-33.82153456 94.53022191 -40.7189086 84.75139372 -45.37109375 73.8515625 C-50.42221071 60.89850879 -49.68393456 47.67030265 -47.40234375 34.20703125 C-46.74234375 34.20703125 -46.08234375 34.20703125 -45.40234375 34.20703125 C-45.19609375 33.40265625 -44.98984375 32.59828125 -44.77734375 31.76953125 C-42.01165012 24.60387047 -37.02987808 17.47860708 -31.40234375 12.20703125 C-30.74234375 12.20703125 -30.08234375 12.20703125 -29.40234375 12.20703125 C-29.40234375 11.54703125 -29.40234375 10.88703125 -29.40234375 10.20703125 C-19.5955771 4.91605301 -11.2231192 0.96719564 0 0 Z M-19.40234375 27.20703125 C-23.16108386 31.92006289 -24.38542693 35.1055303 -25.40234375 41.20703125 C-6.92234375 41.20703125 11.55765625 41.20703125 30.59765625 41.20703125 C27.5497547 32.06332661 25.01141409 26.20511998 16.34765625 21.76953125 C4.62941639 16.54319627 -9.97666104 18.10960615 -19.40234375 27.20703125 Z " fill="#00BDFB" transform="translate(1012.40234375,461.79296875)"/>
<path d="M0 0 C10.99062498 9.1671427 16.45313502 21.12252584 18.40234375 35.09765625 C18.4911381 37.36713542 18.53253509 39.63894662 18.52734375 41.91015625 C18.53121094 43.62138672 18.53121094 43.62138672 18.53515625 45.3671875 C18.40234375 48.09765625 18.40234375 48.09765625 17.40234375 49.09765625 C14.96838356 49.19264271 12.56291423 49.22324042 10.12866211 49.21118164 C8.98727531 49.21140068 8.98727531 49.21140068 7.8228302 49.21162415 C5.29592077 49.21092487 2.76908413 49.2031318 0.2421875 49.1953125 C-1.50516215 49.19344837 -3.25251232 49.19202445 -4.99986267 49.19102478 C-9.60797559 49.18719918 -14.2160572 49.17736854 -18.82415771 49.1663208 C-23.52274146 49.15610759 -28.22133024 49.15152735 -32.91992188 49.14648438 C-42.14584712 49.1357463 -51.37174909 49.11866938 -60.59765625 49.09765625 C-59.84034813 51.17232563 -59.07270107 53.24322273 -58.30078125 55.3125 C-57.87442383 56.46613037 -57.44806641 57.61976074 -57.00878906 58.80834961 C-53.83414698 66.20834144 -49.21087595 70.42663099 -41.80859375 73.40625 C-32.12913615 76.43321819 -21.54429929 76.31302364 -12.15234375 72.453125 C-7.88197559 70.18734862 -4.21881231 67.28069713 -0.59765625 64.09765625 C3.79129304 67.36486416 8.1549404 70.64664103 12.40234375 74.09765625 C11.72535996 79.24976667 9.95292138 81.04148242 6.046875 84.2578125 C-1.13993728 89.25779564 -9.82399697 93.96916022 -18.59765625 95.09765625 C-19.59796875 95.24074219 -20.59828125 95.38382813 -21.62890625 95.53125 C-36.59512732 97.1660737 -52.10878493 94.35362061 -64.18945312 84.84472656 C-75.93189562 74.73852606 -81.76711301 62.12720885 -83.53515625 46.78515625 C-84.34799869 30.81860839 -79.15631393 16.06884339 -68.59765625 4.09765625 C-49.38019595 -12.85225711 -21.10190403 -15.45357483 0 0 Z M-52.98828125 16.21484375 C-56.53007638 20.35840019 -59.59765625 25.58153135 -59.59765625 31.09765625 C-41.11765625 31.09765625 -22.63765625 31.09765625 -3.59765625 31.09765625 C-7.59825187 20.09601829 -10.47402441 15.08277799 -20.59765625 10.09765625 C-32.03309324 7.02258076 -44.11282872 8.11293984 -52.98828125 16.21484375 Z " fill="#0095FB" transform="translate(529.59765625,471.90234375)"/>
<path d="M0 0 C11.24705464 10.5834614 17.01574234 22.93588962 17.60742188 38.28833008 C17.86584081 54.50581859 13.05188924 67.56299403 2.01953125 79.5546875 C-8.64791889 89.6960219 -23.37303095 93.72605782 -37.79296875 93.7421875 C-53.55938871 92.83701725 -66.86672339 87.77506037 -78.08203125 76.42578125 C-87.89337387 64.97921486 -91.44925481 51.3108766 -90.48046875 36.4296875 C-90.27106846 34.19857726 -90.04372688 31.9690287 -89.79296875 29.7421875 C-89.695 28.86433594 -89.59703125 27.98648438 -89.49609375 27.08203125 C-89.28231484 25.29949239 -89.04188493 23.52016021 -88.79296875 21.7421875 C-88.13296875 21.7421875 -87.47296875 21.7421875 -86.79296875 21.7421875 C-86.39271484 20.42347656 -86.39271484 20.42347656 -85.984375 19.078125 C-81.40217951 6.24797762 -72.09566497 -2.2012536 -60.08544922 -8.02075195 C-40.65593791 -16.84926749 -16.46635926 -13.31126665 0 0 Z M-61.79296875 18.7421875 C-68.05277046 27.67680062 -68.76708638 39.1413353 -67.16796875 49.6171875 C-65.29065623 58.09116763 -60.94011305 64.55340075 -53.91796875 69.5859375 C-45.57055038 74.12791514 -34.02748656 75.15756796 -24.87890625 72.58984375 C-16.53586344 69.19950613 -10.9315641 63.67460825 -6.76171875 55.79296875 C-2.99812999 46.64535719 -3.3896214 35.21324562 -6.98046875 26.1171875 C-11.09269995 17.66426781 -16.24999182 12.84014674 -24.79296875 8.7421875 C-38.84842542 4.87926398 -52.03365575 7.92063635 -61.79296875 18.7421875 Z " fill="#00A8FA" transform="translate(822.79296875,474.2578125)"/>
<path d="M0 0 C0.91644287 0.00523682 1.83288574 0.01047363 2.77709961 0.01586914 C3.76645508 0.0190918 4.75581055 0.02231445 5.77514648 0.02563477 C6.81606445 0.03401367 7.85698242 0.04239258 8.92944336 0.05102539 C10.49662109 0.05779297 10.49662109 0.05779297 12.09545898 0.06469727 C14.68600996 0.07652627 17.27644895 0.0930085 19.86694336 0.11352539 C19.87058899 0.97272583 19.87423462 1.83192627 19.87799072 2.71716309 C19.91595208 10.83821132 19.9728969 18.95886128 20.0508461 27.07962799 C20.09025414 31.2540284 20.12247507 35.42821998 20.13793945 39.6027832 C20.1531504 43.63605477 20.18767347 47.66875196 20.23525238 51.70176697 C20.2500207 53.2357838 20.25798175 54.76988265 20.25882721 56.30397034 C20.24039977 67.79945855 20.24039977 67.79945855 24.86694336 78.11352539 C30.48601397 83.08065963 37.43308352 83.84283217 44.68334961 83.53540039 C52.17744943 82.54231722 58.70023332 79.65828739 63.86694336 74.11352539 C67.63451223 66.66086855 67.34323232 59.05679152 67.37866211 50.89477539 C67.39553147 49.42645793 67.41368471 47.9581547 67.43305969 46.48986816 C67.48032141 42.6496628 67.51028401 38.80951521 67.53649902 34.96911621 C67.56642573 31.0405741 67.61291405 27.11223059 67.65795898 23.18383789 C67.74372066 15.49381586 67.8096523 7.80382189 67.86694336 0.11352539 C75.12694336 0.11352539 82.38694336 0.11352539 89.86694336 0.11352539 C89.86694336 33.44352539 89.86694336 66.77352539 89.86694336 101.11352539 C79.47194336 101.60852539 79.47194336 101.60852539 68.86694336 102.11352539 C66.81995922 100.06654125 67.16648643 95.80941298 66.86694336 93.11352539 C66.41706055 93.50024414 65.96717773 93.88696289 65.50366211 94.28540039 C55.67766459 102.24071702 44.82964624 104.67058573 32.34741211 103.89477539 C24.66506208 103.02915849 18.39103681 101.29503592 11.86694336 97.11352539 C10.89821289 96.50057617 10.89821289 96.50057617 9.90991211 95.87524414 C3.38180508 91.05383176 -0.22656908 83.55177773 -1.8249054 75.72616577 C-2.9849494 66.75136088 -3.41371326 57.96503213 -3.36352539 48.90258789 C-3.3623288 47.51394697 -3.36188144 46.12530523 -3.36213684 44.73666382 C-3.36059229 41.8645095 -3.3524498 38.99248345 -3.33886719 36.12036133 C-3.32165364 32.4338785 -3.31806029 28.74753253 -3.31881237 25.06101418 C-3.31854152 22.21125985 -3.31307779 19.3615356 -3.30581093 16.51179123 C-3.30262816 15.15056968 -3.30065777 13.78934473 -3.29991722 12.42811966 C-3.29776223 10.54280619 -3.28823761 8.65750541 -3.27832031 6.7722168 C-3.27450851 5.70049225 -3.27069672 4.6287677 -3.26676941 3.52456665 C-3.09664829 0.45702828 -3.05859974 0.16278458 0 0 Z " fill="#009CFD" transform="translate(562.133056640625,463.886474609375)"/>
<path d="M0 0 C-0.33 7.26 -0.66 14.52 -1 22 C-3.64 21.67 -6.28 21.34 -9 21 C-18.17120221 20.36699567 -26.36768299 21.71608822 -34 27 C-40.69263829 33.23632204 -42.07022332 41.57834676 -42.43237305 50.48120117 C-42.47322871 52.83491772 -42.49907865 55.18893158 -42.51171875 57.54296875 C-42.52966995 58.79257889 -42.54762115 60.04218903 -42.56611633 61.32966614 C-42.61076364 64.61256031 -42.64324602 67.89526249 -42.66955566 71.17834473 C-42.69961671 74.54415979 -42.74605736 77.90974743 -42.79101562 81.27539062 C-42.87557775 87.8501542 -42.94407365 94.42493378 -43 101 C-42.34 101.33 -41.68 101.66 -41 102 C-48.92 102 -56.84 102 -65 102 C-65 68.67 -65 35.34 -65 1 C-57.74 1 -50.48 1 -43 1 C-42.67 4.63 -42.34 8.26 -42 12 C-41.34 12 -40.68 12 -40 12 C-39.75121094 11.40316406 -39.50242187 10.80632812 -39.24609375 10.19140625 C-36.13888459 4.72700394 -29.54433696 1.91505139 -23.75 0.125 C-15.83309532 -1.7705969 -7.94167589 -1.58833518 0 0 Z " fill="#00A0FC" transform="translate(735,463)"/>
<path d="M0 0 C0 28.71 0 57.42 0 87 C-0.66 87 -1.32 87 -2 87 C-2 58.62 -2 30.24 -2 1 C-8.27 1 -14.54 1 -21 1 C-21 45.88 -21 90.76 -21 137 C-14.73 137 -8.46 137 -2 137 C-2.24363281 134.21175781 -2.24363281 134.21175781 -2.4921875 131.3671875 C-3.76090774 110.39365599 -3.76090774 110.39365599 1.1171875 104.0234375 C4.41316126 100.53673832 8.03599842 97.68985821 12 95 C13.32 95.66 14.64 96.32 16 97 C16 97.99 16 98.98 16 100 C15.01 99.34 14.02 98.68 13 98 C11.76552296 99.03536784 10.53771988 100.07869393 9.3125 101.125 C8.62800781 101.70507812 7.94351562 102.28515625 7.23828125 102.8828125 C6.49964844 103.58148437 5.76101563 104.28015625 5 105 C4.09378906 105.80695313 3.18757813 106.61390625 2.25390625 107.4453125 C-1.52228779 112.08744573 -0.56172667 118.09025036 -0.375 123.75 C-0.36082031 124.89855469 -0.34664062 126.04710937 -0.33203125 127.23046875 C-0.47575532 132.78935073 -0.47575532 132.78935073 1 138 C-6 139 -6 139 -23 138 C-23 92.46 -23 46.92 -23 0 C-2 -1 -2 -1 0 0 Z " fill="#01AAEC" transform="translate(1239,427)"/>
<path d="M0 0 C1.16273438 -0.020625 2.32546875 -0.04125 3.5234375 -0.0625 C5.1940625 -0.07023437 5.1940625 -0.07023437 6.8984375 -0.078125 C7.92372559 -0.0874707 8.94901367 -0.09681641 10.00537109 -0.10644531 C12.96353412 0.29606336 13.83187567 0.9271412 15.625 3.25 C15.295 3.91 14.965 4.57 14.625 5.25 C13.965 4.59 13.305 3.93 12.625 3.25 C4.705 2.92 -3.215 2.59 -11.375 2.25 C-11.375 47.13 -11.375 92.01 -11.375 138.25 C-4.445 138.25 2.485 138.25 9.625 138.25 C9.625 103.27 9.625 68.29 9.625 32.25 C12.97498521 33.36666174 13.41840222 33.99694925 15.3125 36.8125 C15.96798828 37.77349609 15.96798828 37.77349609 16.63671875 38.75390625 C16.96285156 39.24761719 17.28898437 39.74132812 17.625 40.25 C17.295 40.91 16.965 41.57 16.625 42.25 C14.15 39.775 14.15 39.775 11.625 37.25 C11.62722061 38.51311508 11.62944122 39.77623016 11.63172913 41.07762146 C11.65195836 52.95323839 11.66697108 64.82885186 11.67681217 76.70448208 C11.68204156 82.81056369 11.6891402 88.91663144 11.70043945 95.02270508 C11.71126637 100.91005147 11.71727642 106.79738449 11.71987724 112.68474007 C11.72173185 114.93632277 11.72535313 117.18790469 11.73073006 119.43948174 C11.73793789 122.58133427 11.73899105 125.72313083 11.73852539 128.86499023 C11.74212067 129.80581955 11.74571594 130.74664886 11.74942017 131.71598816 C11.73905216 138.13594784 11.73905216 138.13594784 10.625 139.25 C8.84428754 139.33726223 7.0601686 139.35699041 5.27734375 139.34765625 C4.19775391 139.34443359 3.11816406 139.34121094 2.00585938 139.33789062 C0.86955078 139.32951172 -0.26675781 139.32113281 -1.4375 139.3125 C-2.57767578 139.30798828 -3.71785156 139.30347656 -4.89257812 139.29882812 C-7.72010351 139.28699747 -10.5475264 139.2705141 -13.375 139.25 C-13.39832821 121.27430767 -13.41597879 103.29861926 -13.42681217 85.32291508 C-13.4319753 76.97707171 -13.43901831 68.63123773 -13.45043945 60.28540039 C-13.46038579 53.0138123 -13.46685331 45.74223101 -13.46908849 38.47063631 C-13.47039569 34.61800479 -13.47348208 30.76539272 -13.48073006 26.91276741 C-13.48748948 23.29067328 -13.48961712 19.66860672 -13.48810768 16.04650688 C-13.48851637 14.07502772 -13.49391197 12.10355159 -13.49942017 10.13208008 C-13.4980455 8.96955215 -13.49667084 7.80702423 -13.49525452 6.60926819 C-13.49617631 5.59253053 -13.4970981 4.57579287 -13.49804783 3.52824497 C-13.18696811 -2.23143247 -4.36661277 0.01923618 0 0 Z M10.625 34.25 C11.625 36.25 11.625 36.25 11.625 36.25 Z " fill="#036DD2" transform="translate(317.375,425.75)"/>
<path d="M0 0 C7.26 0 14.52 0 22 0 C22 4.95 22 9.9 22 15 C21.67 15 21.34 15 21 15 C21 10.71 21 6.42 21 2 C14.73 2 8.46 2 2 2 C2 34.34 2 66.68 2 100 C8.27 100 14.54 100 21 100 C20.98428955 98.22431641 20.9685791 96.44863281 20.95239258 94.61914062 C20.90386121 88.72794206 20.8694751 82.83675037 20.84456348 76.94541168 C20.82896053 73.37625379 20.80782182 69.80731378 20.77368164 66.23828125 C20.74089466 62.78881207 20.72310668 59.33955143 20.71536827 55.88993835 C20.70719269 53.94466264 20.68380455 51.99946988 20.66011047 50.05432129 C20.65883595 43.30105427 21.09798972 38.1320448 24 32 C25 35 25 35 24.08837891 38.359375 C22.49297461 44.2511295 22.64407979 50.18211421 22.5859375 56.25 C22.56657135 57.50385498 22.5472052 58.75770996 22.5272522 60.04956055 C22.47783066 63.35711676 22.43646547 66.66464086 22.39910889 69.97235107 C22.35885366 73.35796811 22.30786038 76.74342232 22.2578125 80.12890625 C22.16205308 86.75249886 22.07692556 93.37616332 22 100 C22.66 100.33 23.32 100.66 24 101 C16.08 101 8.16 101 0 101 C0 67.67 0 34.34 0 0 Z " fill="#057BD5" transform="translate(670,464)"/>
<path d="M0 0 C0.91644287 0.00523682 1.83288574 0.01047363 2.77709961 0.01586914 C3.76645508 0.0190918 4.75581055 0.02231445 5.77514648 0.02563477 C6.81606445 0.03401367 7.85698242 0.04239258 8.92944336 0.05102539 C10.49662109 0.05779297 10.49662109 0.05779297 12.09545898 0.06469727 C14.68600996 0.07652627 17.27644895 0.0930085 19.86694336 0.11352539 C19.87574272 1.40898788 19.87574272 1.40898788 19.88471985 2.73062134 C19.94269622 10.88167758 20.0148013 19.03246124 20.10265827 27.18325233 C20.14732816 31.37336925 20.18659159 35.56338969 20.21337891 39.75366211 C20.23944585 43.79981609 20.27987184 47.84559818 20.33012962 51.89152145 C20.3467755 53.43277729 20.35830397 54.97409741 20.36455727 56.51543045 C20.37422356 58.67954464 20.40231071 60.84271232 20.43457031 63.0065918 C20.44567337 64.23681061 20.45677643 65.46702942 20.46821594 66.73452759 C20.90448392 70.43166117 22.14876041 72.8478681 23.86694336 76.11352539 C23.53694336 76.77352539 23.20694336 77.43352539 22.86694336 78.11352539 C18.68916287 72.18377244 17.73970195 68.78802496 17.75341797 61.60083008 C17.75327194 60.95651031 17.75312592 60.31219055 17.75297546 59.64834595 C17.75366985 57.52732936 17.76143999 55.40640156 17.76928711 53.28540039 C17.77115297 51.81138151 17.77257608 50.33736201 17.77357483 48.86334229 C17.77738675 44.99013548 17.78720571 41.11696636 17.79827881 37.24377441 C17.80852143 33.28890493 17.81307856 29.33402933 17.81811523 25.37915039 C17.82882919 17.62392291 17.84641524 9.86873424 17.86694336 2.11352539 C11.59694336 2.11352539 5.32694336 2.11352539 -1.13305664 2.11352539 C-1.06988088 11.05062609 -0.99425412 19.98739168 -0.89734173 28.92419147 C-0.85281473 33.07492911 -0.81352094 37.22557258 -0.78662109 41.37646484 C-0.76041017 45.3902198 -0.71988567 49.40360886 -0.66987038 53.41713524 C-0.65332089 54.94030354 -0.64173304 56.46353495 -0.63544273 57.98678017 C-0.59555256 66.76703992 -0.01197935 74.75318137 2.86694336 83.11352539 C3.25881836 84.33040039 3.65069336 85.54727539 4.05444336 86.80102539 C4.45663086 87.94571289 4.45663086 87.94571289 4.86694336 89.11352539 C-1.93595726 83.60641537 -2.0756484 74.21643053 -2.94882584 66.16222382 C-3.46515877 60.42045624 -3.39542006 54.66182129 -3.36352539 48.90258789 C-3.3623288 47.51394697 -3.36188144 46.12530523 -3.36213684 44.73666382 C-3.36059229 41.8645095 -3.3524498 38.99248345 -3.33886719 36.12036133 C-3.32165364 32.4338785 -3.31806029 28.74753253 -3.31881237 25.06101418 C-3.31854152 22.21125985 -3.31307779 19.3615356 -3.30581093 16.51179123 C-3.30262816 15.15056968 -3.30065777 13.78934473 -3.29991722 12.42811966 C-3.29776223 10.54280619 -3.28823761 8.65750541 -3.27832031 6.7722168 C-3.27450851 5.70049225 -3.27069672 4.6287677 -3.26676941 3.52456665 C-3.09664829 0.45702828 -3.05859974 0.16278458 0 0 Z " fill="#047BDF" transform="translate(562.133056640625,463.886474609375)"/>
<path d="M0 0 C7.25926918 6.56423277 9.36860144 16.14031259 10.8359375 25.50390625 C10.98487385 28.67766903 10.81506243 31.56351891 10.51025391 34.71850586 C10.36881454 36.20259193 10.36881454 36.20259193 10.22451782 37.71665955 C10.15042694 38.4701619 10.07633606 39.22366425 10 40 C9.05230743 40.01030746 8.10461487 40.02061493 7.12820435 40.03123474 C-1.78922119 40.12885792 -10.70657521 40.23158134 -19.6238842 40.33933926 C-24.20870405 40.39457776 -28.79353027 40.44799925 -33.37841797 40.49731445 C-37.80047393 40.54494432 -42.22245099 40.59728663 -46.64441299 40.65294075 C-48.33413867 40.67337055 -50.023886 40.69208259 -51.71364975 40.70907402 C-54.07464192 40.73310422 -56.43548433 40.76316056 -58.79638672 40.79467773 C-59.85158508 40.80331093 -59.85158508 40.80331093 -60.92810059 40.81211853 C-64.58753278 40.82488557 -64.58753278 40.82488557 -68 42 C-67.40362909 43.58628608 -66.79754075 45.16892059 -66.1875 46.75 C-65.85105469 47.63171875 -65.51460937 48.5134375 -65.16796875 49.421875 C-64.03112171 51.93130326 -62.6558864 53.81745632 -61 56 C-61 56.66 -61 57.32 -61 58 C-60.443125 58.27714844 -59.88625 58.55429687 -59.3125 58.83984375 C-57.72499827 59.63627621 -56.1418596 60.44144722 -54.5625 61.25390625 C-53.716875 61.68574219 -52.87125 62.11757813 -52 62.5625 C-51.154375 62.99691406 -50.30875 63.43132813 -49.4375 63.87890625 C-40.94147946 67.78653108 -30.71754492 66.70544497 -22 64 C-20.66745971 63.62219164 -19.33415268 63.24707445 -18 62.875 C-16.515 62.441875 -16.515 62.441875 -15 62 C-19.21228783 67.14016941 -27.21639743 68.51686306 -33.5390625 69.32421875 C-43.30348807 69.54849001 -51.44220124 66.44054209 -59.625 61.375 C-65.75059236 55.24940764 -69.42123107 47.6815339 -70 39 C-68.30331793 37.30331793 -66.18867982 37.88031007 -63.92559814 37.87557983 C-62.83695465 37.88097275 -62.83695465 37.88097275 -61.72631836 37.88647461 C-60.96539383 37.88632858 -60.2044693 37.88618256 -59.42048645 37.8860321 C-56.89357702 37.88673138 -54.36674038 37.89452445 -51.83984375 37.90234375 C-50.0924941 37.90420788 -48.34514393 37.9056318 -46.59779358 37.90663147 C-41.98968066 37.91045707 -37.38159905 37.92028771 -32.77349854 37.93133545 C-28.07491479 37.94154866 -23.37632601 37.9461289 -18.67773438 37.95117188 C-9.45180913 37.96190995 -0.22590716 37.97898687 9 38 C8.86482594 35.62067232 8.7232759 33.24200423 8.578125 30.86328125 C8.54090332 30.19655396 8.50368164 29.52982666 8.46533203 28.84289551 C7.89041146 19.63571168 5.36477684 12.06485405 0.98828125 3.99609375 C0 2 0 2 0 0 Z " fill="#0399D9" transform="translate(1054,481)"/>
<path d="M0 0 C7.26 0 14.52 0 22 0 C22 33.33 22 66.66 22 101 C11.605 101.495 11.605 101.495 1 102 C-1.04698414 99.95301586 -0.70045693 95.69588759 -1 93 C-1.99 93.99 -2.98 94.98 -4 96 C-4.66 95.67 -5.32 95.34 -6 95 C-3.69 93.02 -1.38 91.04 1 89 C2 90 2 90 2.09765625 92.28515625 C2.06510417 94.85677083 2.03255208 97.42838542 2 100 C8.27 100 14.54 100 21 100 C21 67.66 21 35.32 21 2 C14.73 2 8.46 2 2 2 C2.01047363 3.86245361 2.02094727 5.72490723 2.03173828 7.64379883 C2.06397686 13.79450283 2.08696428 19.94518684 2.10362434 26.09595203 C2.11406556 29.8254906 2.12823083 33.55493783 2.15087891 37.28442383 C2.17259539 40.88298631 2.18456608 44.4814609 2.18975449 48.08008385 C2.1934524 49.45362418 2.20067345 50.82715966 2.21146011 52.20066261 C2.22595829 54.12306662 2.22681678 56.04555891 2.22705078 57.96801758 C2.231492 59.06277908 2.23593323 60.15754059 2.24050903 61.28547668 C2 64 2 64 0 67 C0 44.89 0 22.78 0 0 Z " fill="#0577D5" transform="translate(630,464)"/>
<path d="M0 0 C0.99 0.495 0.99 0.495 2 1 C4.37300761 8.67565425 4.52326953 17.04143555 4 25 C2.30331793 26.69668207 0.18867982 26.11968993 -2.07440186 26.12442017 C-2.80016418 26.12082489 -3.52592651 26.11722961 -4.27368164 26.11352539 C-5.41506844 26.11374443 -5.41506844 26.11374443 -6.57951355 26.1139679 C-9.10642298 26.11326862 -11.63325962 26.10547555 -14.16015625 26.09765625 C-15.9075059 26.09579212 -17.65485607 26.0943682 -19.40220642 26.09336853 C-24.01031934 26.08954293 -28.61840095 26.07971229 -33.22650146 26.06866455 C-37.92508521 26.05845134 -42.62367399 26.0538711 -47.32226562 26.04882812 C-56.54819087 26.03809005 -65.77409284 26.02101313 -75 26 C-74.23951347 28.07576969 -73.46940534 30.14801587 -72.6953125 32.21875 C-72.26750488 33.37310547 -71.83969727 34.52746094 -71.39892578 35.71679688 C-67.81300116 44.13276795 -62.46225758 47.79067792 -54.16015625 51.1875 C-53.44730469 51.455625 -52.73445313 51.72375 -52 52 C-54.23959452 52.75480791 -55.59024543 53.11490025 -57.89453125 52.46875 C-66.56994616 48.08687037 -71.16983798 42.56907276 -75.15234375 33.74609375 C-76.09880323 30.67991396 -76.22436549 28.19148462 -76 25 C-74.31496301 23.31496301 -72.23740116 23.88034017 -69.98905945 23.87557983 C-68.91444206 23.88097275 -68.91444206 23.88097275 -67.81811523 23.88647461 C-67.06694427 23.88632858 -66.31577332 23.88618256 -65.5418396 23.8860321 C-63.04739541 23.88673137 -60.55302497 23.89452436 -58.05859375 23.90234375 C-56.33366436 23.90420788 -54.60873443 23.90563181 -52.88380432 23.90663147 C-48.33487497 23.91045703 -43.78597733 23.92028762 -39.23706055 23.93133545 C-34.59879994 23.94154876 -29.96053423 23.94612892 -25.32226562 23.95117188 C-16.21482754 23.96190987 -7.10742137 23.97950696 2 24 C1.01 12.12 1.01 12.12 0 0 Z " fill="#0275DD" transform="translate(544,495)"/>
<path d="M0 0 C10.00499195 -0.0462752 20.00995858 -0.08184462 30.01503563 -0.10362434 C34.66045274 -0.11407582 39.30579681 -0.12825979 43.95117188 -0.15087891 C48.43153225 -0.1725588 52.91182222 -0.18455834 57.39223099 -0.18975449 C59.10431655 -0.19345899 60.81639812 -0.20069266 62.52845383 -0.21146011 C64.92058486 -0.22591068 67.31242242 -0.22798067 69.70458984 -0.22705078 C70.41740616 -0.23424133 71.13022247 -0.24143188 71.86463928 -0.24884033 C76.77189568 -0.22810432 76.77189568 -0.22810432 79 2 C53.26 2 27.52 2 1 2 C3.50602652 10.87399385 3.50602652 10.87399385 8 18 C7.67 18.66 7.34 19.32 7 20 C2.40535263 15.28117298 0.05960345 10.55224174 -1 4 C-0.70260047 2.65819435 -0.37411307 1.32247053 0 0 Z " fill="#029DDF" transform="translate(1101,519)"/>
<path d="M0 0 C0.66 0.33 1.32 0.66 2 1 C1.60167969 1.4846875 1.20335937 1.969375 0.79296875 2.46875 C-0.00173828 3.47421875 -0.00173828 3.47421875 -0.8125 4.5 C-1.33457031 5.1496875 -1.85664063 5.799375 -2.39453125 6.46875 C-4.58729604 9.73475138 -4.58729604 9.73475138 -7 17 C20.225 16.505 20.225 16.505 48 16 C45.19248338 8.91356224 45.19248338 8.91356224 42 2 C42.66 2 43.32 2 44 2 C44.82545462 3.51384113 45.63471087 5.03651839 46.4375 6.5625 C47.11619141 7.83287109 47.11619141 7.83287109 47.80859375 9.12890625 C49 12 49 12 50 19 C30.53 19 11.06 19 -9 19 C-6.74832875 8.86747936 -6.74832875 8.86747936 -3.9375 5 C-3.41027344 4.2575 -2.88304687 3.515 -2.33984375 2.75 C-1 1 -1 1 0 0 Z " fill="#0174D8" transform="translate(477,486)"/>
<path d="M0 0 C0 28.71 0 57.42 0 87 C-0.66 87 -1.32 87 -2 87 C-2 58.62 -2 30.24 -2 1 C-8.6 1 -15.2 1 -22 1 C-22 0.67 -22 0.34 -22 0 C-18.70880065 -0.1964031 -15.41703066 -0.38060745 -12.125 -0.5625 C-11.18785156 -0.61857422 -10.25070312 -0.67464844 -9.28515625 -0.73242188 C-8.38925781 -0.78076172 -7.49335937 -0.82910156 -6.5703125 -0.87890625 C-5.74289551 -0.9260376 -4.91547852 -0.97316895 -4.06298828 -1.02172852 C-2 -1 -2 -1 0 0 Z " fill="#029CDC" transform="translate(1239,427)"/>
<path d="M0 0 C0 3.16532218 -0.4881352 4.27663837 -1.9375 7 C-3.18464997 9.36019778 -4.15026832 11.45080496 -5 14 C13.15 14 31.3 14 50 14 C49.505 10.535 49.505 10.535 49 7 C49.66 7.33 50.32 7.66 51 8 C51.495 11.96 51.495 11.96 52 16 C32.53 16 13.06 16 -7 16 C-4.42857143 4.42857143 -4.42857143 4.42857143 0 0 Z " fill="#0298D7" transform="translate(1108,489)"/>
<path d="M0 0 C0.33 0.66 0.66 1.32 1 2 C0.01 4.64 -0.98 7.28 -2 10 C16.48 10 34.96 10 54 10 C54.33 9.34 54.66 8.68 55 8 C55 9.32 55 10.64 55 12 C35.53 12 16.06 12 -4 12 C-2.875 4.125 -2.875 4.125 0 0 Z " fill="#0295D6" transform="translate(989,493)"/>
<path d="M0 0 C-3.14480095 5.16192076 -6.9303009 9.16943929 -11.25 13.375 C-11.8996875 14.01566406 -12.549375 14.65632813 -13.21875 15.31640625 C-14.80800885 16.88229364 -16.40176417 18.44328509 -18 20 C-18 17 -18 17 -16.71484375 15.37426758 C-16.12832031 14.80345459 -15.54179688 14.2326416 -14.9375 13.64453125 C-14.30585937 13.02255859 -13.67421875 12.40058594 -13.0234375 11.75976562 C-12.35570312 11.11716797 -11.68796875 10.47457031 -11 9.8125 C-10.33226562 9.15830078 -9.66453125 8.50410156 -8.9765625 7.83007812 C-7.32421559 6.21313865 -5.66528399 4.60359509 -4 3 C-16.62654524 1.12076224 -16.62654524 1.12076224 -28.51416016 4.47216797 C-33.3140476 8.39263978 -37.30054135 13.04395563 -41 18 C-41 12.53885234 -36.74521532 9.06867172 -33.19311523 5.21850586 C-23.99365529 -3.36420691 -11.68542562 -1.29454494 0 0 Z " fill="#059EDC" transform="translate(1311,464)"/>
<path d="M0 0 C1.32 0.66 2.64 1.32 4 2 C4 2.99 4 3.98 4 5 C3.01 4.34 2.02 3.68 1 3 C-0.23447704 4.03536784 -1.46228012 5.07869393 -2.6875 6.125 C-3.37199219 6.70507812 -4.05648438 7.28515625 -4.76171875 7.8828125 C-5.50035156 8.58148437 -6.23898437 9.28015625 -7 10 C-7.90621094 10.80695312 -8.81242187 11.61390625 -9.74609375 12.4453125 C-13.52228779 17.08744573 -12.56172667 23.09025036 -12.375 28.75 C-12.36082031 29.89855469 -12.34664062 31.04710937 -12.33203125 32.23046875 C-12.47575532 37.78935073 -12.47575532 37.78935073 -11 43 C-16.29653879 43.93959624 -21.08668517 43.98841115 -26.4375 43.5625 C-27.16904297 43.51029297 -27.90058594 43.45808594 -28.65429688 43.40429688 C-30.43668622 43.27615124 -32.2184257 43.1390184 -34 43 C-34 42.67 -34 42.34 -34 42 C-27.4 42 -20.8 42 -14 42 C-14.16242188 40.14117188 -14.32484375 38.28234375 -14.4921875 36.3671875 C-15.76090774 15.39365599 -15.76090774 15.39365599 -10.8828125 9.0234375 C-7.58683874 5.53673832 -3.96400158 2.68985821 0 0 Z " fill="#0392D0" transform="translate(1251,522)"/>
<path d="M0 0 C25.74 0 51.48 0 78 0 C78 0.33 78 0.66 78 1 C53.58 1.33 29.16 1.66 4 2 C3.67 2.66 3.34 3.32 3 4 C1.68 4 0.36 4 -1 4 C-0.67 2.68 -0.34 1.36 0 0 Z " fill="#00A3EB" transform="translate(985,519)"/>
<path d="M0 0 C1.32 0.66 2.64 1.32 4 2 C4 2.99 4 3.98 4 5 C3.01 4.34 2.02 3.68 1 3 C-7.5567173 9.81521444 -7.5567173 9.81521444 -13 19 C-13.33 19 -13.66 19 -14 19 C-14.37471526 14.54021925 -14.37471526 14.54021925 -12.71484375 12.1472168 C-12.12832031 11.58687744 -11.54179688 11.02653809 -10.9375 10.44921875 C-10.30585937 9.83369141 -9.67421875 9.21816406 -9.0234375 8.58398438 C-8.35570312 7.95814453 -7.68796875 7.33230469 -7 6.6875 C-5.99839844 5.71973633 -5.99839844 5.71973633 -4.9765625 4.73242188 C-3.32838797 3.14311073 -1.66970902 1.56662098 0 0 Z " fill="#02A5E5" transform="translate(1251,522)"/>
<path d="M0 0 C-1.27617188 0.06058594 -2.55234375 0.12117188 -3.8671875 0.18359375 C-5.53647016 0.26799568 -7.20574037 0.35264386 -8.875 0.4375 C-9.71675781 0.47681641 -10.55851562 0.51613281 -11.42578125 0.55664062 C-12.23144531 0.59853516 -13.03710938 0.64042969 -13.8671875 0.68359375 C-14.61081543 0.72025146 -15.35444336 0.75690918 -16.12060547 0.79467773 C-18.08864312 0.89955865 -18.08864312 0.89955865 -20 2 C-22.125 1.0625 -22.125 1.0625 -24 0 C-19.56847334 -4.43152666 -4.52468696 -3.01645797 0 0 Z " fill="#05A4E1" transform="translate(1141,464)"/>
<path d="M0 0 C1.5 1.375 1.5 1.375 3 3 C3 3.66 3 4.32 3 5 C2.34 5 1.68 5 1 5 C1 4.34 1 3.68 1 3 C-7.25 3 -15.5 3 -24 3 C-24.33 2.34 -24.66 1.68 -25 1 C-16.75 1.33 -8.5 1.66 0 2 C0 1.34 0 0.68 0 0 Z " fill="#0689C4" transform="translate(1308,562)"/>
<path d="M0 0 C0.66 0.33 1.32 0.66 2 1 C2 4.3 2 7.6 2 11 C1.01 11.495 1.01 11.495 0 12 C-0.33 9.36 -0.66 6.72 -1 4 C-1.99 4.99 -2.98 5.98 -4 7 C-4.66 6.67 -5.32 6.34 -6 6 C-4.02 4.02 -2.04 2.04 0 0 Z " fill="#047EDE" transform="translate(630,553)"/>
<path d="M0 0 C0 2.6705913 -0.30854921 4.46468045 -1 7 C-1.185625 7.7425 -1.37125 8.485 -1.5625 9.25 C-1.706875 9.8275 -1.85125 10.405 -2 11 C-3.32 10.34 -4.64 9.68 -6 9 C-4.47291037 5.56404834 -2.40072955 2.88087546 0 0 Z " fill="#03A0E6" transform="translate(851,538)"/>
<path d="M0 0 C4.875 4.625 4.875 4.625 6 8 C4.68 7.67 3.36 7.34 2 7 C1.34 4.69 0.68 2.38 0 0 Z " fill="#027ADC" transform="translate(336,435)"/>
<path d="" fill="#6C6C6E" transform="translate(0,0)"/>
<path d="" fill="#6A6B6B" transform="translate(0,0)"/>
<path d="M0 0 C2 1 2 1 2 1 Z " fill="#666769" transform="translate(1090,979)"/>
<path d="" fill="#656668" transform="translate(0,0)"/>
<path d="M0 0 C2 1 2 1 2 1 Z " fill="#606164" transform="translate(1090,955)"/>
<path d="" fill="#5F6261" transform="translate(0,0)"/>
<path d="" fill="#5D5F60" transform="translate(0,0)"/>
<path d="M0 0 C2 1 2 1 2 1 Z " fill="#5B5C5E" transform="translate(1090,931)"/>
<path d="" fill="#585A5B" transform="translate(0,0)"/>
<path d="" fill="#4D4E50" transform="translate(0,0)"/>
<path d="" fill="#474A49" transform="translate(0,0)"/>
<path d="M0 0 C2 1 2 1 2 1 Z " fill="#434547" transform="translate(1090,843)"/>
<path d="" fill="#363A3C" transform="translate(0,0)"/>
<path d="M0 0 C2 1 2 1 2 1 Z " fill="#294B54" transform="translate(1090,699)"/>
<path d="M0 0 C2 1 2 1 2 1 Z " fill="#0BADE3" transform="translate(1232,567)"/>
<path d="" fill="#0D93E1" transform="translate(0,0)"/>
<path d="" fill="#09B6EF" transform="translate(0,0)"/>
<path d="M0 0 C2 1 2 1 2 1 Z " fill="#08B2EC" transform="translate(984,559)"/>
<path d="" fill="#05C0FC" transform="translate(0,0)"/>
<path d="M0 0 C2 1 2 1 2 1 Z " fill="#0697F8" transform="translate(533,537)"/>
<path d="" fill="#07C1FD" transform="translate(0,0)"/>
<path d="" fill="#02B4FA" transform="translate(0,0)"/>
<path d="" fill="#04B6F8" transform="translate(0,0)"/>
<path d="M0 0 C2 1 2 1 2 1 Z " fill="#0BB9F3" transform="translate(1044,469)"/>
<path d="M0 0 C2 1 2 1 2 1 Z " fill="#0ABBF6" transform="translate(1034,464)"/>
<path d="M0 0 C2 1 2 1 2 1 Z " fill="#08BBF6" transform="translate(994,464)"/>
<path d="M0 0 C2 1 2 1 2 1 Z " fill="#04BEFC" transform="translate(884,447)"/>
<path d="M0 0 C2 1 2 1 2 1 Z " fill="#03BDFC" transform="translate(905,445)"/>
<path d="M0 0 C2 1 2 1 2 1 Z " fill="#0AB3EE" transform="translate(881,424)"/>
<path d="M0 0 C2 1 2 1 2 1 Z " fill="#404548" transform="translate(1090,235)"/>
<path d="M0 0 C2 1 2 1 2 1 Z " fill="#424748" transform="translate(1090,211)"/>
<path d="M0 0 C2 1 2 1 2 1 Z " fill="#5F5F5F" transform="translate(1090,59)"/>
<path d="" fill="#6C6F6E" transform="translate(0,0)"/>
<path d="" fill="#727474" transform="translate(0,0)"/>
<path d="" fill="#6E6E6F" transform="translate(0,0)"/>
<path d="" fill="#6A6D6E" transform="translate(0,0)"/>
<path d="" fill="#6A6D6C" transform="translate(0,0)"/>
<path d="" fill="#6E6D71" transform="translate(0,0)"/>
<path d="" fill="#6D6E6F" transform="translate(0,0)"/>
<path d="" fill="#6E6C6F" transform="translate(0,0)"/>
<path d="" fill="#6C6C6C" transform="translate(0,0)"/>
<path d="" fill="#696D6E" transform="translate(0,0)"/>
<path d="" fill="#6D6F6F" transform="translate(0,0)"/>
<path d="" fill="#6C6F6E" transform="translate(0,0)"/>
<path d="" fill="#6B6E6D" transform="translate(0,0)"/>
<path d="" fill="#686C6C" transform="translate(0,0)"/>
<path d="" fill="#6B6C6B" transform="translate(0,0)"/>
<path d="" fill="#6B6C6D" transform="translate(0,0)"/>
<path d="" fill="#6C6D6F" transform="translate(0,0)"/>
<path d="" fill="#6B6B6C" transform="translate(0,0)"/>
<path d="" fill="#6A6C6C" transform="translate(0,0)"/>
<path d="" fill="#6B6D6C" transform="translate(0,0)"/>
<path d="" fill="#6B6D6E" transform="translate(0,0)"/>
<path d="" fill="#6A6B6C" transform="translate(0,0)"/>
<path d="" fill="#6A6B6B" transform="translate(0,0)"/>
<path d="" fill="#6A6D6A" transform="translate(0,0)"/>
<path d="" fill="#6B6C6C" transform="translate(0,0)"/>
<path d="" fill="#6D6F6F" transform="translate(0,0)"/>
<path d="" fill="#6F7072" transform="translate(0,0)"/>
<path d="" fill="#6B6E6C" transform="translate(0,0)"/>
<path d="" fill="#727475" transform="translate(0,0)"/>
<path d="" fill="#676B6B" transform="translate(0,0)"/>
<path d="" fill="#6A696A" transform="translate(0,0)"/>
<path d="" fill="#6C6D6E" transform="translate(0,0)"/>
<path d="" fill="#6C6D6E" transform="translate(0,0)"/>
<path d="" fill="#6D6B6D" transform="translate(0,0)"/>
<path d="" fill="#6C6B6C" transform="translate(0,0)"/>
<path d="" fill="#6E7070" transform="translate(0,0)"/>
<path d="" fill="#696B6A" transform="translate(0,0)"/>
<path d="" fill="#6A6A6B" transform="translate(0,0)"/>
<path d="" fill="#6B6D6D" transform="translate(0,0)"/>
<path d="" fill="#67696B" transform="translate(0,0)"/>
<path d="" fill="#717173" transform="translate(0,0)"/>
<path d="" fill="#6D6C6D" transform="translate(0,0)"/>
<path d="" fill="#676A6A" transform="translate(0,0)"/>
<path d="" fill="#696A69" transform="translate(0,0)"/>
<path d="" fill="#707273" transform="translate(0,0)"/>
<path d="" fill="#696B6B" transform="translate(0,0)"/>
<path d="" fill="#6A6A6B" transform="translate(0,0)"/>
<path d="" fill="#696A6C" transform="translate(0,0)"/>
<path d="" fill="#6B6D6D" transform="translate(0,0)"/>
<path d="" fill="#696B6A" transform="translate(0,0)"/>
<path d="" fill="#6F7173" transform="translate(0,0)"/>
<path d="" fill="#656968" transform="translate(0,0)"/>
<path d="" fill="#676768" transform="translate(0,0)"/>
<path d="" fill="#656867" transform="translate(0,0)"/>
<path d="" fill="#6A696B" transform="translate(0,0)"/>
<path d="" fill="#69696B" transform="translate(0,0)"/>
<path d="" fill="#656A6A" transform="translate(0,0)"/>
<path d="" fill="#67666A" transform="translate(0,0)"/>
<path d="" fill="#6A6C6B" transform="translate(0,0)"/>
<path d="" fill="#6F7171" transform="translate(0,0)"/>
<path d="" fill="#636668" transform="translate(0,0)"/>
<path d="" fill="#656667" transform="translate(0,0)"/>
<path d="" fill="#68676A" transform="translate(0,0)"/>
<path d="" fill="#6E6F71" transform="translate(0,0)"/>
<path d="" fill="#666768" transform="translate(0,0)"/>
<path d="" fill="#666968" transform="translate(0,0)"/>
<path d="" fill="#676868" transform="translate(0,0)"/>
<path d="" fill="#636766" transform="translate(0,0)"/>
<path d="" fill="#636465" transform="translate(0,0)"/>
<path d="" fill="#676969" transform="translate(0,0)"/>
<path d="" fill="#636667" transform="translate(0,0)"/>
<path d="" fill="#666867" transform="translate(0,0)"/>
<path d="" fill="#626665" transform="translate(0,0)"/>
<path d="" fill="#676767" transform="translate(0,0)"/>
<path d="" fill="#656769" transform="translate(0,0)"/>
<path d="" fill="#656567" transform="translate(0,0)"/>
<path d="" fill="#646566" transform="translate(0,0)"/>
<path d="" fill="#636466" transform="translate(0,0)"/>
<path d="" fill="#616466" transform="translate(0,0)"/>
<path d="" fill="#636666" transform="translate(0,0)"/>
<path d="" fill="#6B6D6E" transform="translate(0,0)"/>
<path d="" fill="#6C6E6F" transform="translate(0,0)"/>
<path d="" fill="#646566" transform="translate(0,0)"/>
<path d="" fill="#606263" transform="translate(0,0)"/>
<path d="" fill="#636566" transform="translate(0,0)"/>
<path d="" fill="#626565" transform="translate(0,0)"/>
<path d="" fill="#626363" transform="translate(0,0)"/>
<path d="" fill="#606464" transform="translate(0,0)"/>
<path d="" fill="#626364" transform="translate(0,0)"/>
<path d="" fill="#616365" transform="translate(0,0)"/>
<path d="" fill="#616264" transform="translate(0,0)"/>
<path d="" fill="#616262" transform="translate(0,0)"/>
<path d="" fill="#616463" transform="translate(0,0)"/>
<path d="" fill="#6B6D6E" transform="translate(0,0)"/>
<path d="" fill="#5E6161" transform="translate(0,0)"/>
<path d="" fill="#626364" transform="translate(0,0)"/>
<path d="" fill="#616163" transform="translate(0,0)"/>
<path d="" fill="#5F6061" transform="translate(0,0)"/>
<path d="" fill="#605F5F" transform="translate(0,0)"/>
<path d="" fill="#5D6063" transform="translate(0,0)"/>
<path d="" fill="#626364" transform="translate(0,0)"/>
<path d="" fill="#67686B" transform="translate(0,0)"/>
<path d="" fill="#5F6260" transform="translate(0,0)"/>
<path d="" fill="#6A6C6D" transform="translate(0,0)"/>
<path d="" fill="#5A5E5E" transform="translate(0,0)"/>
<path d="" fill="#606162" transform="translate(0,0)"/>
<path d="" fill="#5E6062" transform="translate(0,0)"/>
<path d="" fill="#5D605F" transform="translate(0,0)"/>
<path d="" fill="#5C5E5E" transform="translate(0,0)"/>
<path d="" fill="#5D5D5F" transform="translate(0,0)"/>
<path d="" fill="#5C5F5F" transform="translate(0,0)"/>
<path d="" fill="#606264" transform="translate(0,0)"/>
<path d="" fill="#6C6E6F" transform="translate(0,0)"/>
<path d="" fill="#5D5F60" transform="translate(0,0)"/>
<path d="" fill="#595D5D" transform="translate(0,0)"/>
<path d="" fill="#5E5F61" transform="translate(0,0)"/>
<path d="" fill="#5C5F5E" transform="translate(0,0)"/>
<path d="" fill="#666666" transform="translate(0,0)"/>
<path d="" fill="#5C5D5D" transform="translate(0,0)"/>
<path d="" fill="#5A5C5D" transform="translate(0,0)"/>
<path d="" fill="#5E5F61" transform="translate(0,0)"/>
<path d="" fill="#565B5B" transform="translate(0,0)"/>
<path d="" fill="#585A59" transform="translate(0,0)"/>
<path d="" fill="#5C5C5E" transform="translate(0,0)"/>
<path d="" fill="#585B5C" transform="translate(0,0)"/>
<path d="" fill="#5B5C5B" transform="translate(0,0)"/>
<path d="" fill="#595D5B" transform="translate(0,0)"/>
<path d="" fill="#585A5B" transform="translate(0,0)"/>
<path d="" fill="#58595B" transform="translate(0,0)"/>
<path d="" fill="#595B58" transform="translate(0,0)"/>
<path d="" fill="#5C5D5E" transform="translate(0,0)"/>
<path d="" fill="#646567" transform="translate(0,0)"/>
<path d="" fill="#68686A" transform="translate(0,0)"/>
<path d="" fill="#676969" transform="translate(0,0)"/>
<path d="" fill="#565959" transform="translate(0,0)"/>
<path d="" fill="#565758" transform="translate(0,0)"/>
<path d="" fill="#57585A" transform="translate(0,0)"/>
<path d="" fill="#5C5C5D" transform="translate(0,0)"/>
<path d="" fill="#565859" transform="translate(0,0)"/>
<path d="" fill="#676869" transform="translate(0,0)"/>
<path d="" fill="#58595C" transform="translate(0,0)"/>
<path d="" fill="#595A5B" transform="translate(0,0)"/>
<path d="" fill="#56585A" transform="translate(0,0)"/>
<path d="" fill="#6C6C6D" transform="translate(0,0)"/>
<path d="" fill="#565859" transform="translate(0,0)"/>
<path d="" fill="#585A58" transform="translate(0,0)"/>
<path d="" fill="#5B5C5C" transform="translate(0,0)"/>
<path d="" fill="#656769" transform="translate(0,0)"/>
<path d="" fill="#545757" transform="translate(0,0)"/>
<path d="" fill="#58585A" transform="translate(0,0)"/>
<path d="" fill="#585759" transform="translate(0,0)"/>
<path d="" fill="#545857" transform="translate(0,0)"/>
<path d="" fill="#565657" transform="translate(0,0)"/>
<path d="" fill="#525556" transform="translate(0,0)"/>
<path d="" fill="#515554" transform="translate(0,0)"/>
<path d="" fill="#555658" transform="translate(0,0)"/>
<path d="" fill="#545757" transform="translate(0,0)"/>
<path d="" fill="#525555" transform="translate(0,0)"/>
<path d="" fill="#4F5253" transform="translate(0,0)"/>
<path d="" fill="#535455" transform="translate(0,0)"/>
<path d="" fill="#4F5152" transform="translate(0,0)"/>
<path d="" fill="#535455" transform="translate(0,0)"/>
<path d="" fill="#505353" transform="translate(0,0)"/>
<path d="" fill="#505151" transform="translate(0,0)"/>
<path d="" fill="#4D5150" transform="translate(0,0)"/>
<path d="" fill="#545657" transform="translate(0,0)"/>
<path d="" fill="#4C5150" transform="translate(0,0)"/>
<path d="" fill="#525153" transform="translate(0,0)"/>
<path d="" fill="#515454" transform="translate(0,0)"/>
<path d="" fill="#505252" transform="translate(0,0)"/>
<path d="" fill="#4C5151" transform="translate(0,0)"/>
<path d="" fill="#4F4E4E" transform="translate(0,0)"/>
<path d="" fill="#4D4E4F" transform="translate(0,0)"/>
<path d="" fill="#4E4E51" transform="translate(0,0)"/>
<path d="" fill="#4B4F4E" transform="translate(0,0)"/>
<path d="" fill="#525456" transform="translate(0,0)"/>
<path d="" fill="#626365" transform="translate(0,0)"/>
<path d="" fill="#4E5250" transform="translate(0,0)"/>
<path d="" fill="#626364" transform="translate(0,0)"/>
<path d="" fill="#4B4E4D" transform="translate(0,0)"/>
<path d="" fill="#515451" transform="translate(0,0)"/>
<path d="" fill="#4D5150" transform="translate(0,0)"/>
<path d="" fill="#4A4F4F" transform="translate(0,0)"/>
<path d="" fill="#585759" transform="translate(0,0)"/>
<path d="" fill="#5E5C5E" transform="translate(0,0)"/>
<path d="" fill="#4D4F50" transform="translate(0,0)"/>
<path d="" fill="#4B4E4D" transform="translate(0,0)"/>
<path d="" fill="#4D4F4E" transform="translate(0,0)"/>
<path d="" fill="#515354" transform="translate(0,0)"/>
<path d="" fill="#616263" transform="translate(0,0)"/>
<path d="" fill="#474B4C" transform="translate(0,0)"/>
<path d="" fill="#4B4E4F" transform="translate(0,0)"/>
<path d="" fill="#4C4D4D" transform="translate(0,0)"/>
<path d="" fill="#494C4D" transform="translate(0,0)"/>
<path d="" fill="#494B4B" transform="translate(0,0)"/>
<path d="" fill="#464A4A" transform="translate(0,0)"/>
<path d="" fill="#4A4B4D" transform="translate(0,0)"/>
<path d="" fill="#48494A" transform="translate(0,0)"/>
<path d="" fill="#484C4A" transform="translate(0,0)"/>
<path d="" fill="#434748" transform="translate(0,0)"/>
<path d="" fill="#47494B" transform="translate(0,0)"/>
<path d="" fill="#4C4D4E" transform="translate(0,0)"/>
<path d="" fill="#48494A" transform="translate(0,0)"/>
<path d="" fill="#454646" transform="translate(0,0)"/>
<path d="" fill="#4B4D4E" transform="translate(0,0)"/>
<path d="" fill="#58595B" transform="translate(0,0)"/>
<path d="" fill="#414544" transform="translate(0,0)"/>
<path d="" fill="#464849" transform="translate(0,0)"/>
<path d="" fill="#454649" transform="translate(0,0)"/>
<path d="" fill="#414444" transform="translate(0,0)"/>
<path d="" fill="#434547" transform="translate(0,0)"/>
<path d="" fill="#464B4A" transform="translate(0,0)"/>
<path d="" fill="#565759" transform="translate(0,0)"/>
<path d="" fill="#5C5E5E" transform="translate(0,0)"/>
<path d="" fill="#3B4140" transform="translate(0,0)"/>
<path d="" fill="#404245" transform="translate(0,0)"/>
<path d="" fill="#414344" transform="translate(0,0)"/>
<path d="" fill="#3F4042" transform="translate(0,0)"/>
<path d="" fill="#3C4243" transform="translate(0,0)"/>
<path d="" fill="#454949" transform="translate(0,0)"/>
<path d="" fill="#5B5D5D" transform="translate(0,0)"/>
<path d="" fill="#3A3E3E" transform="translate(0,0)"/>
<path d="" fill="#3F4143" transform="translate(0,0)"/>
<path d="" fill="#3F4243" transform="translate(0,0)"/>
<path d="" fill="#3B3F40" transform="translate(0,0)"/>
<path d="" fill="#3D3F3F" transform="translate(0,0)"/>
<path d="" fill="#5B5C5C" transform="translate(0,0)"/>
<path d="" fill="#3C4341" transform="translate(0,0)"/>
<path d="" fill="#5B5B5D" transform="translate(0,0)"/>
<path d="" fill="#3D4141" transform="translate(0,0)"/>
<path d="" fill="#373D3D" transform="translate(0,0)"/>
<path d="" fill="#3C3F41" transform="translate(0,0)"/>
<path d="" fill="#3C4042" transform="translate(0,0)"/>
<path d="" fill="#585D5B" transform="translate(0,0)"/>
<path d="" fill="#3A3E3F" transform="translate(0,0)"/>
<path d="" fill="#424746" transform="translate(0,0)"/>
<path d="" fill="#5A5C5B" transform="translate(0,0)"/>
<path d="" fill="#353B3B" transform="translate(0,0)"/>
<path d="" fill="#595C5A" transform="translate(0,0)"/>
<path d="" fill="#3A3E41" transform="translate(0,0)"/>
<path d="" fill="#394041" transform="translate(0,0)"/>
<path d="" fill="#31393B" transform="translate(0,0)"/>
<path d="" fill="#3F4244" transform="translate(0,0)"/>
<path d="" fill="#383E3E" transform="translate(0,0)"/>
<path d="" fill="#515254" transform="translate(0,0)"/>
<path d="" fill="#33383A" transform="translate(0,0)"/>
<path d="" fill="#3D4445" transform="translate(0,0)"/>
<path d="" fill="#57595A" transform="translate(0,0)"/>
<path d="" fill="#57595A" transform="translate(0,0)"/>
<path d="" fill="#363C3E" transform="translate(0,0)"/>
<path d="" fill="#313839" transform="translate(0,0)"/>
<path d="" fill="#363A3D" transform="translate(0,0)"/>
<path d="" fill="#57595A" transform="translate(0,0)"/>
<path d="" fill="#575959" transform="translate(0,0)"/>
<path d="" fill="#373D3F" transform="translate(0,0)"/>
<path d="" fill="#323A3C" transform="translate(0,0)"/>
<path d="" fill="#3B4345" transform="translate(0,0)"/>
<path d="" fill="#363D3D" transform="translate(0,0)"/>
<path d="" fill="#323B3B" transform="translate(0,0)"/>
<path d="" fill="#55585A" transform="translate(0,0)"/>
<path d="" fill="#343D40" transform="translate(0,0)"/>
<path d="" fill="#2F3336" transform="translate(0,0)"/>
<path d="" fill="#30363A" transform="translate(0,0)"/>
<path d="" fill="#303335" transform="translate(0,0)"/>
<path d="" fill="#2F3539" transform="translate(0,0)"/>
<path d="" fill="#2F3639" transform="translate(0,0)"/>
<path d="" fill="#2E393B" transform="translate(0,0)"/>
<path d="" fill="#3B4343" transform="translate(0,0)"/>
<path d="" fill="#33373B" transform="translate(0,0)"/>
<path d="" fill="#2F3A3B" transform="translate(0,0)"/>
<path d="" fill="#2D3438" transform="translate(0,0)"/>
<path d="" fill="#2C3839" transform="translate(0,0)"/>
<path d="" fill="#2D3537" transform="translate(0,0)"/>
<path d="" fill="#31383C" transform="translate(0,0)"/>
<path d="" fill="#535658" transform="translate(0,0)"/>
<path d="" fill="#354040" transform="translate(0,0)"/>
<path d="" fill="#2C383A" transform="translate(0,0)"/>
<path d="" fill="#2D3839" transform="translate(0,0)"/>
<path d="" fill="#384344" transform="translate(0,0)"/>
<path d="" fill="#4B4F4F" transform="translate(0,0)"/>
<path d="" fill="#545556" transform="translate(0,0)"/>
<path d="" fill="#2A3738" transform="translate(0,0)"/>
<path d="" fill="#313D40" transform="translate(0,0)"/>
<path d="" fill="#364346" transform="translate(0,0)"/>
<path d="" fill="#2F3E3E" transform="translate(0,0)"/>
<path d="" fill="#515556" transform="translate(0,0)"/>
<path d="" fill="#28383A" transform="translate(0,0)"/>
<path d="" fill="#30383C" transform="translate(0,0)"/>
<path d="" fill="#515356" transform="translate(0,0)"/>
<path d="" fill="#303D41" transform="translate(0,0)"/>
<path d="" fill="#2E3D3F" transform="translate(0,0)"/>
<path d="" fill="#2B353C" transform="translate(0,0)"/>
<path d="" fill="#525556" transform="translate(0,0)"/>
<path d="" fill="#515455" transform="translate(0,0)"/>
<path d="" fill="#27393D" transform="translate(0,0)"/>
<path d="" fill="#2F393D" transform="translate(0,0)"/>
<path d="" fill="#28363A" transform="translate(0,0)"/>
<path d="" fill="#2A393E" transform="translate(0,0)"/>
<path d="" fill="#2C4041" transform="translate(0,0)"/>
<path d="" fill="#454B49" transform="translate(0,0)"/>
<path d="" fill="#4F5354" transform="translate(0,0)"/>
<path d="" fill="#273B3E" transform="translate(0,0)"/>
<path d="" fill="#2D3940" transform="translate(0,0)"/>
<path d="" fill="#2C3E42" transform="translate(0,0)"/>
<path d="" fill="#29373D" transform="translate(0,0)"/>
<path d="" fill="#4F5454" transform="translate(0,0)"/>
<path d="" fill="#283D40" transform="translate(0,0)"/>
<path d="" fill="#2D3A41" transform="translate(0,0)"/>
<path d="" fill="#2C4246" transform="translate(0,0)"/>
<path d="" fill="#293E42" transform="translate(0,0)"/>
<path d="" fill="#4E5254" transform="translate(0,0)"/>
<path d="" fill="#273E44" transform="translate(0,0)"/>
<path d="" fill="#4D5154" transform="translate(0,0)"/>
<path d="" fill="#273D41" transform="translate(0,0)"/>
<path d="" fill="#4C5053" transform="translate(0,0)"/>
<path d="" fill="#43494A" transform="translate(0,0)"/>
<path d="" fill="#484D4E" transform="translate(0,0)"/>
<path d="" fill="#4E5153" transform="translate(0,0)"/>
<path d="" fill="#274245" transform="translate(0,0)"/>
<path d="" fill="#2A454C" transform="translate(0,0)"/>
<path d="" fill="#2C3D45" transform="translate(0,0)"/>
<path d="" fill="#4C5153" transform="translate(0,0)"/>
<path d="" fill="#25434A" transform="translate(0,0)"/>
<path d="" fill="#2B3F48" transform="translate(0,0)"/>
<path d="" fill="#4D5052" transform="translate(0,0)"/>
<path d="" fill="#304E56" transform="translate(0,0)"/>
<path d="" fill="#4B4F53" transform="translate(0,0)"/>
<path d="" fill="#4A5052" transform="translate(0,0)"/>
<path d="" fill="#26464E" transform="translate(0,0)"/>
<path d="" fill="#2A404D" transform="translate(0,0)"/>
<path d="" fill="#2B4A52" transform="translate(0,0)"/>
<path d="" fill="#294A53" transform="translate(0,0)"/>
<path d="" fill="#4A4F52" transform="translate(0,0)"/>
<path d="" fill="#515457" transform="translate(0,0)"/>
<path d="" fill="#264952" transform="translate(0,0)"/>
<path d="" fill="#2A4350" transform="translate(0,0)"/>
<path d="" fill="#4A5051" transform="translate(0,0)"/>
<path d="" fill="#274D56" transform="translate(0,0)"/>
<path d="" fill="#2E565F" transform="translate(0,0)"/>
<path d="" fill="#264D57" transform="translate(0,0)"/>
<path d="" fill="#294554" transform="translate(0,0)"/>
<path d="" fill="#29505E" transform="translate(0,0)"/>
<path d="" fill="#25505D" transform="translate(0,0)"/>
<path d="" fill="#265460" transform="translate(0,0)"/>
<path d="" fill="#275260" transform="translate(0,0)"/>
<path d="" fill="#484D52" transform="translate(0,0)"/>
<path d="" fill="#255463" transform="translate(0,0)"/>
<path d="" fill="#284B61" transform="translate(0,0)"/>
<path d="" fill="#295969" transform="translate(0,0)"/>
<path d="" fill="#474E51" transform="translate(0,0)"/>
<path d="" fill="#275A6A" transform="translate(0,0)"/>
<path d="" fill="#474E51" transform="translate(0,0)"/>
<path d="" fill="#245969" transform="translate(0,0)"/>
<path d="" fill="#274E67" transform="translate(0,0)"/>
<path d="" fill="#464D51" transform="translate(0,0)"/>
<path d="" fill="#464E51" transform="translate(0,0)"/>
<path d="" fill="#266378" transform="translate(0,0)"/>
<path d="" fill="#236379" transform="translate(0,0)"/>
<path d="" fill="#265878" transform="translate(0,0)"/>
<path d="" fill="#454D52" transform="translate(0,0)"/>
<path d="" fill="#4C5054" transform="translate(0,0)"/>
<path d="" fill="#216A81" transform="translate(0,0)"/>
<path d="" fill="#404A51" transform="translate(0,0)"/>
<path d="" fill="#256382" transform="translate(0,0)"/>
<path d="" fill="#454D51" transform="translate(0,0)"/>
<path d="" fill="#22718C" transform="translate(0,0)"/>
<path d="" fill="#4C5054" transform="translate(0,0)"/>
<path d="" fill="#434C52" transform="translate(0,0)"/>
<path d="" fill="#444D51" transform="translate(0,0)"/>
<path d="" fill="#236694" transform="translate(0,0)"/>
<path d="" fill="#3E4C53" transform="translate(0,0)"/>
<path d="" fill="#424B51" transform="translate(0,0)"/>
<path d="" fill="#424C52" transform="translate(0,0)"/>
<path d="" fill="#434D53" transform="translate(0,0)"/>
<path d="" fill="#414D52" transform="translate(0,0)"/>
<path d="" fill="#364F60" transform="translate(0,0)"/>
<path d="" fill="#424C54" transform="translate(0,0)"/>
<path d="" fill="#414C54" transform="translate(0,0)"/>
<path d="" fill="#414D53" transform="translate(0,0)"/>
<path d="" fill="#0CAFE3" transform="translate(0,0)"/>
<path d="" fill="#08AEE6" transform="translate(0,0)"/>
<path d="" fill="#09B0EA" transform="translate(0,0)"/>
<path d="" fill="#0C7FD4" transform="translate(0,0)"/>
<path d="" fill="#0A79D1" transform="translate(0,0)"/>
<path d="" fill="#0AADEA" transform="translate(0,0)"/>
<path d="" fill="#0895EB" transform="translate(0,0)"/>
<path d="" fill="#0C85D7" transform="translate(0,0)"/>
<path d="" fill="#08BBF1" transform="translate(0,0)"/>
<path d="" fill="#0DAFE8" transform="translate(0,0)"/>
<path d="" fill="#08B7EE" transform="translate(0,0)"/>
<path d="" fill="#0E93E5" transform="translate(0,0)"/>
<path d="" fill="#0C8AE7" transform="translate(0,0)"/>
<path d="" fill="#0DB3EB" transform="translate(0,0)"/>
<path d="" fill="#0791EA" transform="translate(0,0)"/>
<path d="" fill="#0D8AE6" transform="translate(0,0)"/>
<path d="" fill="#08B7F1" transform="translate(0,0)"/>
<path d="" fill="#08B1EB" transform="translate(0,0)"/>
<path d="" fill="#0F97EB" transform="translate(0,0)"/>
<path d="" fill="#079CF6" transform="translate(0,0)"/>
<path d="" fill="#0690EC" transform="translate(0,0)"/>
<path d="" fill="#08B3EB" transform="translate(0,0)"/>
<path d="" fill="#0AACF0" transform="translate(0,0)"/>
<path d="" fill="#0DB7EF" transform="translate(0,0)"/>
<path d="" fill="#09B4EC" transform="translate(0,0)"/>
<path d="" fill="#07BCF3" transform="translate(0,0)"/>
<path d="" fill="#0CBBF1" transform="translate(0,0)"/>
<path d="" fill="#09A3F0" transform="translate(0,0)"/>
<path d="" fill="#04B8F2" transform="translate(0,0)"/>
<path d="" fill="#06B5F3" transform="translate(0,0)"/>
<path d="" fill="#05BFF8" transform="translate(0,0)"/>
<path d="" fill="#049BF7" transform="translate(0,0)"/>
<path d="" fill="#059EF7" transform="translate(0,0)"/>
<path d="" fill="#06BBF3" transform="translate(0,0)"/>
<path d="" fill="#04A0F7" transform="translate(0,0)"/>
<path d="" fill="#0492F2" transform="translate(0,0)"/>
<path d="" fill="#09B2F7" transform="translate(0,0)"/>
<path d="" fill="#05B0F6" transform="translate(0,0)"/>
<path d="" fill="#414E57" transform="translate(0,0)"/>
<path d="" fill="#0BBFF3" transform="translate(0,0)"/>
<path d="" fill="#06C2F8" transform="translate(0,0)"/>
<path d="" fill="#08C1FE" transform="translate(0,0)"/>
<path d="" fill="#06BAF4" transform="translate(0,0)"/>
<path d="" fill="#0792F4" transform="translate(0,0)"/>
<path d="" fill="#06C3F8" transform="translate(0,0)"/>
<path d="" fill="#414F56" transform="translate(0,0)"/>
<path d="" fill="#04BFF9" transform="translate(0,0)"/>
<path d="" fill="#05C2FC" transform="translate(0,0)"/>
<path d="" fill="#06C4FE" transform="translate(0,0)"/>
<path d="" fill="#06C2FC" transform="translate(0,0)"/>
<path d="" fill="#0596F9" transform="translate(0,0)"/>
<path d="" fill="#0696F5" transform="translate(0,0)"/>
<path d="" fill="#03C0FD" transform="translate(0,0)"/>
<path d="" fill="#434E56" transform="translate(0,0)"/>
<path d="" fill="#06B9F8" transform="translate(0,0)"/>
<path d="" fill="#05C0F3" transform="translate(0,0)"/>
<path d="" fill="#02BEFB" transform="translate(0,0)"/>
<path d="" fill="#00C8FA" transform="translate(0,0)"/>
<path d="" fill="#04C5FE" transform="translate(0,0)"/>
<path d="" fill="#06A6FA" transform="translate(0,0)"/>
<path d="" fill="#414F57" transform="translate(0,0)"/>
<path d="" fill="#05C1FC" transform="translate(0,0)"/>
<path d="" fill="#06C0FF" transform="translate(0,0)"/>
<path d="" fill="#079AF8" transform="translate(0,0)"/>
<path d="" fill="#0694F6" transform="translate(0,0)"/>
<path d="" fill="#03B3FE" transform="translate(0,0)"/>
<path d="" fill="#039CF9" transform="translate(0,0)"/>
<path d="" fill="#04BEFA" transform="translate(0,0)"/>
<path d="" fill="#07A9FD" transform="translate(0,0)"/>
<path d="" fill="#0797F6" transform="translate(0,0)"/>
<path d="" fill="#06A0FB" transform="translate(0,0)"/>
<path d="" fill="#00BEFB" transform="translate(0,0)"/>
<path d="" fill="#425058" transform="translate(0,0)"/>
<path d="" fill="#03A8F9" transform="translate(0,0)"/>
<path d="" fill="#09A8FB" transform="translate(0,0)"/>
<path d="" fill="#08A1F9" transform="translate(0,0)"/>
<path d="" fill="#434F57" transform="translate(0,0)"/>
<path d="" fill="#0099FB" transform="translate(0,0)"/>
<path d="" fill="#0193FA" transform="translate(0,0)"/>
<path d="" fill="#05B9F8" transform="translate(0,0)"/>
<path d="" fill="#02B9F9" transform="translate(0,0)"/>
<path d="" fill="#02B8FA" transform="translate(0,0)"/>
<path d="" fill="#099FF8" transform="translate(0,0)"/>
<path d="" fill="#04C1FC" transform="translate(0,0)"/>
<path d="" fill="#424F57" transform="translate(0,0)"/>
<path d="" fill="#4C5A5D" transform="translate(0,0)"/>
<path d="" fill="#435058" transform="translate(0,0)"/>
<path d="" fill="#07C1FB" transform="translate(0,0)"/>
<path d="" fill="#00C4FB" transform="translate(0,0)"/>
<path d="" fill="#01C4FF" transform="translate(0,0)"/>
<path d="" fill="#0698F9" transform="translate(0,0)"/>
<path d="" fill="#06C2FC" transform="translate(0,0)"/>
<path d="" fill="#05A9FB" transform="translate(0,0)"/>
<path d="" fill="#02C4FE" transform="translate(0,0)"/>
<path d="" fill="#059BFA" transform="translate(0,0)"/>
<path d="" fill="#07B6F9" transform="translate(0,0)"/>
<path d="" fill="#01C4FE" transform="translate(0,0)"/>
<path d="" fill="#03C6FC" transform="translate(0,0)"/>
<path d="" fill="#00AAF6" transform="translate(0,0)"/>
<path d="" fill="#00A5F8" transform="translate(0,0)"/>
<path d="" fill="#089FF8" transform="translate(0,0)"/>
<path d="" fill="#434E57" transform="translate(0,0)"/>
<path d="" fill="#494F53" transform="translate(0,0)"/>
<path d="" fill="#03C3FF" transform="translate(0,0)"/>
<path d="" fill="#0799F4" transform="translate(0,0)"/>
<path d="" fill="#0095FD" transform="translate(0,0)"/>
<path d="" fill="#029AFB" transform="translate(0,0)"/>
<path d="" fill="#0495F6" transform="translate(0,0)"/>
<path d="" fill="#05C3FF" transform="translate(0,0)"/>
<path d="" fill="#07C3FE" transform="translate(0,0)"/>
<path d="" fill="#08BEF8" transform="translate(0,0)"/>
<path d="" fill="#05C4FE" transform="translate(0,0)"/>
<path d="" fill="#03C3FE" transform="translate(0,0)"/>
<path d="" fill="#05AFF8" transform="translate(0,0)"/>
<path d="" fill="#04ADF9" transform="translate(0,0)"/>
<path d="" fill="#049AFD" transform="translate(0,0)"/>
<path d="" fill="#049CFB" transform="translate(0,0)"/>
<path d="" fill="#008FF4" transform="translate(0,0)"/>
<path d="" fill="#04C7FD" transform="translate(0,0)"/>
<path d="" fill="#434F56" transform="translate(0,0)"/>
<path d="" fill="#0198F7" transform="translate(0,0)"/>
<path d="" fill="#099EF6" transform="translate(0,0)"/>
<path d="" fill="#424E58" transform="translate(0,0)"/>
<path d="" fill="#434F58" transform="translate(0,0)"/>
<path d="" fill="#08B7F3" transform="translate(0,0)"/>
<path d="" fill="#06A0F5" transform="translate(0,0)"/>
<path d="" fill="#08ABF6" transform="translate(0,0)"/>
<path d="" fill="#0CA0F8" transform="translate(0,0)"/>
<path d="" fill="#0C9AF1" transform="translate(0,0)"/>
<path d="" fill="#424F58" transform="translate(0,0)"/>
<path d="" fill="#0ABAF1" transform="translate(0,0)"/>
<path d="" fill="#425058" transform="translate(0,0)"/>
<path d="" fill="#0AB9F1" transform="translate(0,0)"/>
<path d="" fill="#09BBF1" transform="translate(0,0)"/>
<path d="" fill="#0A98F1" transform="translate(0,0)"/>
<path d="" fill="#0CB8F2" transform="translate(0,0)"/>
<path d="" fill="#0ABBF5" transform="translate(0,0)"/>
<path d="" fill="#0ABCF3" transform="translate(0,0)"/>
<path d="" fill="#08A4EF" transform="translate(0,0)"/>
<path d="" fill="#0398F7" transform="translate(0,0)"/>
<path d="" fill="#455057" transform="translate(0,0)"/>
<path d="" fill="#0DBBF2" transform="translate(0,0)"/>
<path d="" fill="#109CEC" transform="translate(0,0)"/>
<path d="" fill="#0CBAF1" transform="translate(0,0)"/>
<path d="" fill="#0E9FEB" transform="translate(0,0)"/>
<path d="" fill="#0E93EC" transform="translate(0,0)"/>
<path d="" fill="#0B91EB" transform="translate(0,0)"/>
<path d="" fill="#08BCF7" transform="translate(0,0)"/>
<path d="" fill="#4D5254" transform="translate(0,0)"/>
<path d="" fill="#05BAF8" transform="translate(0,0)"/>
<path d="" fill="#0794F3" transform="translate(0,0)"/>
<path d="" fill="#0AB4EE" transform="translate(0,0)"/>
<path d="" fill="#08AEEB" transform="translate(0,0)"/>
<path d="" fill="#3D4F5D" transform="translate(0,0)"/>
<path d="" fill="#10AFE6" transform="translate(0,0)"/>
<path d="" fill="#07AEEA" transform="translate(0,0)"/>
<path d="" fill="#444E55" transform="translate(0,0)"/>
<path d="" fill="#2194BE" transform="translate(0,0)"/>
<path d="" fill="#11B1EB" transform="translate(0,0)"/>
<path d="" fill="#16B1E1" transform="translate(0,0)"/>
<path d="" fill="#444F54" transform="translate(0,0)"/>
<path d="" fill="#464F54" transform="translate(0,0)"/>
<path d="" fill="#445056" transform="translate(0,0)"/>
<path d="" fill="#287FA1" transform="translate(0,0)"/>
<path d="" fill="#464E54" transform="translate(0,0)"/>
<path d="" fill="#286A97" transform="translate(0,0)"/>
<path d="" fill="#474E54" transform="translate(0,0)"/>
<path d="" fill="#484F53" transform="translate(0,0)"/>
<path d="" fill="#4F5356" transform="translate(0,0)"/>
<path d="" fill="#29648E" transform="translate(0,0)"/>
<path d="" fill="#2C5E84" transform="translate(0,0)"/>
<path d="" fill="#2D5B7B" transform="translate(0,0)"/>
<path d="" fill="#4A4F53" transform="translate(0,0)"/>
<path d="" fill="#2F5774" transform="translate(0,0)"/>
<path d="" fill="#4A4F52" transform="translate(0,0)"/>
<path d="" fill="#2F6172" transform="translate(0,0)"/>
<path d="" fill="#4A5053" transform="translate(0,0)"/>
<path d="" fill="#4A4F54" transform="translate(0,0)"/>
<path d="" fill="#4B4F53" transform="translate(0,0)"/>
<path d="" fill="#525657" transform="translate(0,0)"/>
<path d="" fill="#2D6479" transform="translate(0,0)"/>
<path d="" fill="#325167" transform="translate(0,0)"/>
<path d="" fill="#4B5053" transform="translate(0,0)"/>
<path d="" fill="#325C6C" transform="translate(0,0)"/>
<path d="" fill="#316276" transform="translate(0,0)"/>
<path d="" fill="#4B5053" transform="translate(0,0)"/>
<path d="" fill="#334E62" transform="translate(0,0)"/>
<path d="" fill="#304B59" transform="translate(0,0)"/>
<path d="" fill="#4C5053" transform="translate(0,0)"/>
<path d="" fill="#344C5E" transform="translate(0,0)"/>
<path d="" fill="#335562" transform="translate(0,0)"/>
<path d="" fill="#315765" transform="translate(0,0)"/>
<path d="" fill="#354A58" transform="translate(0,0)"/>
<path d="" fill="#34515D" transform="translate(0,0)"/>
<path d="" fill="#3A565E" transform="translate(0,0)"/>
<path d="" fill="#32555F" transform="translate(0,0)"/>
<path d="" fill="#324D58" transform="translate(0,0)"/>
<path d="" fill="#354755" transform="translate(0,0)"/>
<path d="" fill="#354E58" transform="translate(0,0)"/>
<path d="" fill="#35505A" transform="translate(0,0)"/>
<path d="" fill="#35525B" transform="translate(0,0)"/>
<path d="" fill="#4E5153" transform="translate(0,0)"/>
<path d="" fill="#3D545B" transform="translate(0,0)"/>
<path d="" fill="#4E5254" transform="translate(0,0)"/>
<path d="" fill="#33515A" transform="translate(0,0)"/>
<path d="" fill="#354552" transform="translate(0,0)"/>
<path d="" fill="#4E5254" transform="translate(0,0)"/>
<path d="" fill="#364F57" transform="translate(0,0)"/>
<path d="" fill="#34434D" transform="translate(0,0)"/>
<path d="" fill="#3C5257" transform="translate(0,0)"/>
<path d="" fill="#344E57" transform="translate(0,0)"/>
<path d="" fill="#36454F" transform="translate(0,0)"/>
<path d="" fill="#344046" transform="translate(0,0)"/>
<path d="" fill="#3E5053" transform="translate(0,0)"/>
<path d="" fill="#515355" transform="translate(0,0)"/>
<path d="" fill="#364B53" transform="translate(0,0)"/>
<path d="" fill="#37434C" transform="translate(0,0)"/>
<path d="" fill="#384A50" transform="translate(0,0)"/>
<path d="" fill="#394B51" transform="translate(0,0)"/>
<path d="" fill="#3A4A4F" transform="translate(0,0)"/>
<path d="" fill="#384B51" transform="translate(0,0)"/>
<path d="" fill="#3E4F52" transform="translate(0,0)"/>
<path d="" fill="#394C50" transform="translate(0,0)"/>
<path d="" fill="#515355" transform="translate(0,0)"/>
<path d="" fill="#354B50" transform="translate(0,0)"/>
<path d="" fill="#38424A" transform="translate(0,0)"/>
<path d="" fill="#394950" transform="translate(0,0)"/>
<path d="" fill="#39474E" transform="translate(0,0)"/>
<path d="" fill="#3B4B4D" transform="translate(0,0)"/>
<path d="" fill="#3E4B50" transform="translate(0,0)"/>
<path d="" fill="#35484D" transform="translate(0,0)"/>
<path d="" fill="#394248" transform="translate(0,0)"/>
<path d="" fill="#3B484B" transform="translate(0,0)"/>
<path d="" fill="#3C494C" transform="translate(0,0)"/>
<path d="" fill="#374146" transform="translate(0,0)"/>
<path d="" fill="#525455" transform="translate(0,0)"/>
<path d="" fill="#38474C" transform="translate(0,0)"/>
<path d="" fill="#3A4148" transform="translate(0,0)"/>
<path d="" fill="#3C464B" transform="translate(0,0)"/>
<path d="" fill="#3A454C" transform="translate(0,0)"/>
<path d="" fill="#3B484A" transform="translate(0,0)"/>
<path d="" fill="#525357" transform="translate(0,0)"/>
<path d="" fill="#38464A" transform="translate(0,0)"/>
<path d="" fill="#394047" transform="translate(0,0)"/>
<path d="" fill="#3C4649" transform="translate(0,0)"/>
<path d="" fill="#3E4749" transform="translate(0,0)"/>
<path d="" fill="#3C4649" transform="translate(0,0)"/>
<path d="" fill="#535456" transform="translate(0,0)"/>
<path d="" fill="#394549" transform="translate(0,0)"/>
<path d="" fill="#384143" transform="translate(0,0)"/>
<path d="" fill="#3B4245" transform="translate(0,0)"/>
<path d="" fill="#3D464A" transform="translate(0,0)"/>
<path d="" fill="#535657" transform="translate(0,0)"/>
<path d="" fill="#3D4549" transform="translate(0,0)"/>
<path d="" fill="#3B4647" transform="translate(0,0)"/>
<path d="" fill="#3E4749" transform="translate(0,0)"/>
<path d="" fill="#3C4549" transform="translate(0,0)"/>
<path d="" fill="#383E3F" transform="translate(0,0)"/>
<path d="" fill="#383F43" transform="translate(0,0)"/>
<path d="" fill="#42494B" transform="translate(0,0)"/>
<path d="" fill="#545657" transform="translate(0,0)"/>
<path d="" fill="#394447" transform="translate(0,0)"/>
<path d="" fill="#3B4044" transform="translate(0,0)"/>
<path d="" fill="#3F4549" transform="translate(0,0)"/>
<path d="" fill="#3D4547" transform="translate(0,0)"/>
<path d="" fill="#555658" transform="translate(0,0)"/>
<path d="" fill="#3E4648" transform="translate(0,0)"/>
<path d="" fill="#3F4748" transform="translate(0,0)"/>
<path d="" fill="#3D4747" transform="translate(0,0)"/>
<path d="" fill="#3A4546" transform="translate(0,0)"/>
<path d="" fill="#3C4044" transform="translate(0,0)"/>
<path d="" fill="#404747" transform="translate(0,0)"/>
<path d="" fill="#3F4648" transform="translate(0,0)"/>
<path d="" fill="#3F4647" transform="translate(0,0)"/>
<path d="" fill="#3D4447" transform="translate(0,0)"/>
<path d="" fill="#3E4145" transform="translate(0,0)"/>
<path d="" fill="#555759" transform="translate(0,0)"/>
<path d="" fill="#43484A" transform="translate(0,0)"/>
<path d="" fill="#414647" transform="translate(0,0)"/>
<path d="" fill="#3E4647" transform="translate(0,0)"/>
<path d="" fill="#3E4547" transform="translate(0,0)"/>
<path d="" fill="#3D4447" transform="translate(0,0)"/>
<path d="" fill="#46494B" transform="translate(0,0)"/>
<path d="" fill="#414748" transform="translate(0,0)"/>
<path d="" fill="#474A4A" transform="translate(0,0)"/>
<path d="" fill="#3C4546" transform="translate(0,0)"/>
<path d="" fill="#3E4144" transform="translate(0,0)"/>
<path d="" fill="#424749" transform="translate(0,0)"/>
<path d="" fill="#434648" transform="translate(0,0)"/>
<path d="" fill="#57585A" transform="translate(0,0)"/>
<path d="" fill="#414748" transform="translate(0,0)"/>
<path d="" fill="#404746" transform="translate(0,0)"/>
<path d="" fill="#474B4B" transform="translate(0,0)"/>
<path d="" fill="#3E4545" transform="translate(0,0)"/>
<path d="" fill="#3F4344" transform="translate(0,0)"/>
<path d="" fill="#3F4244" transform="translate(0,0)"/>
<path d="" fill="#565759" transform="translate(0,0)"/>
<path d="" fill="#444848" transform="translate(0,0)"/>
<path d="" fill="#414547" transform="translate(0,0)"/>
<path d="" fill="#474B4C" transform="translate(0,0)"/>
<path d="" fill="#585A5B" transform="translate(0,0)"/>
<path d="" fill="#404244" transform="translate(0,0)"/>
<path d="" fill="#3C4043" transform="translate(0,0)"/>
<path d="" fill="#444648" transform="translate(0,0)"/>
<path d="" fill="#565658" transform="translate(0,0)"/>
<path d="" fill="#434749" transform="translate(0,0)"/>
<path d="" fill="#595B5B" transform="translate(0,0)"/>
<path d="" fill="#3F4447" transform="translate(0,0)"/>
<path d="" fill="#454849" transform="translate(0,0)"/>
<path d="" fill="#404244" transform="translate(0,0)"/>
<path d="" fill="#494B4C" transform="translate(0,0)"/>
<path d="" fill="#5A5B5C" transform="translate(0,0)"/>
<path d="" fill="#414646" transform="translate(0,0)"/>
<path d="" fill="#47474A" transform="translate(0,0)"/>
<path d="" fill="#464849" transform="translate(0,0)"/>
<path d="" fill="#434748" transform="translate(0,0)"/>
<path d="" fill="#4B4E4D" transform="translate(0,0)"/>
<path d="" fill="#5B5B5D" transform="translate(0,0)"/>
<path d="" fill="#424647" transform="translate(0,0)"/>
<path d="" fill="#434446" transform="translate(0,0)"/>
<path d="" fill="#48484A" transform="translate(0,0)"/>
<path d="" fill="#444949" transform="translate(0,0)"/>
<path d="" fill="#4D4F4F" transform="translate(0,0)"/>
<path d="" fill="#434848" transform="translate(0,0)"/>
<path d="" fill="#4E4D4D" transform="translate(0,0)"/>
<path d="" fill="#5D5E5F" transform="translate(0,0)"/>
<path d="" fill="#454949" transform="translate(0,0)"/>
<path d="" fill="#464748" transform="translate(0,0)"/>
<path d="" fill="#4C4B4C" transform="translate(0,0)"/>
<path d="" fill="#484B4B" transform="translate(0,0)"/>
<path d="" fill="#49494A" transform="translate(0,0)"/>
<path d="" fill="#49494B" transform="translate(0,0)"/>
<path d="" fill="#5D5E60" transform="translate(0,0)"/>
<path d="" fill="#464A4A" transform="translate(0,0)"/>
<path d="" fill="#484849" transform="translate(0,0)"/>
<path d="" fill="#4B4D4D" transform="translate(0,0)"/>
<path d="" fill="#4E4F50" transform="translate(0,0)"/>
<path d="" fill="#49494B" transform="translate(0,0)"/>
<path d="" fill="#595A5B" transform="translate(0,0)"/>
<path d="" fill="#484B4B" transform="translate(0,0)"/>
<path d="" fill="#4A4A4B" transform="translate(0,0)"/>
<path d="" fill="#4E4D4F" transform="translate(0,0)"/>
<path d="" fill="#484A48" transform="translate(0,0)"/>
<path d="" fill="#535455" transform="translate(0,0)"/>
<path d="" fill="#606062" transform="translate(0,0)"/>
<path d="" fill="#4A4D4D" transform="translate(0,0)"/>
<path d="" fill="#4B4B4D" transform="translate(0,0)"/>
<path d="" fill="#505251" transform="translate(0,0)"/>
<path d="" fill="#4F5050" transform="translate(0,0)"/>
<path d="" fill="#4D4D4E" transform="translate(0,0)"/>
<path d="" fill="#626263" transform="translate(0,0)"/>
<path d="" fill="#4B4F4E" transform="translate(0,0)"/>
<path d="" fill="#4C4D4D" transform="translate(0,0)"/>
<path d="" fill="#565857" transform="translate(0,0)"/>
<path d="" fill="#636263" transform="translate(0,0)"/>
<path d="" fill="#4C5050" transform="translate(0,0)"/>
<path d="" fill="#4F4D50" transform="translate(0,0)"/>
<path d="" fill="#505253" transform="translate(0,0)"/>
<path d="" fill="#545255" transform="translate(0,0)"/>
<path d="" fill="#4E5252" transform="translate(0,0)"/>
<path d="" fill="#545455" transform="translate(0,0)"/>
<path d="" fill="#525354" transform="translate(0,0)"/>
<path d="" fill="#545655" transform="translate(0,0)"/>
<path d="" fill="#535253" transform="translate(0,0)"/>
<path d="" fill="#565657" transform="translate(0,0)"/>
<path d="" fill="#535655" transform="translate(0,0)"/>
<path d="" fill="#666666" transform="translate(0,0)"/>
<path d="" fill="#525554" transform="translate(0,0)"/>
<path d="" fill="#575758" transform="translate(0,0)"/>
<path d="" fill="#545756" transform="translate(0,0)"/>
<path d="" fill="#585A59" transform="translate(0,0)"/>
<path d="" fill="#545555" transform="translate(0,0)"/>
<path d="" fill="#585958" transform="translate(0,0)"/>
<path d="" fill="#676769" transform="translate(0,0)"/>
<path d="" fill="#545756" transform="translate(0,0)"/>
<path d="" fill="#555559" transform="translate(0,0)"/>
<path d="" fill="#585759" transform="translate(0,0)"/>
<path d="" fill="#565858" transform="translate(0,0)"/>
<path d="" fill="#585959" transform="translate(0,0)"/>
<path d="" fill="#555657" transform="translate(0,0)"/>
<path d="" fill="#555452" transform="translate(0,0)"/>
<path d="" fill="#5E5E5F" transform="translate(0,0)"/>
<path d="" fill="#585B59" transform="translate(0,0)"/>
<path d="" fill="#686869" transform="translate(0,0)"/>
<path d="" fill="#5F6060" transform="translate(0,0)"/>
<path d="" fill="#555758" transform="translate(0,0)"/>
<path d="" fill="#575759" transform="translate(0,0)"/>
<path d="" fill="#5A5A5B" transform="translate(0,0)"/>
<path d="" fill="#555656" transform="translate(0,0)"/>
<path d="" fill="#646365" transform="translate(0,0)"/>
<path d="" fill="#5B5C5D" transform="translate(0,0)"/>
<path d="" fill="#56595A" transform="translate(0,0)"/>
<path d="" fill="#59595A" transform="translate(0,0)"/>
<path d="" fill="#5C5C5C" transform="translate(0,0)"/>
<path d="" fill="#595B5B" transform="translate(0,0)"/>
<path d="" fill="#5F5F5E" transform="translate(0,0)"/>
<path d="" fill="#595A5A" transform="translate(0,0)"/>
<path d="" fill="#626262" transform="translate(0,0)"/>
<path d="" fill="#585A5B" transform="translate(0,0)"/>
<path d="" fill="#5A5A5B" transform="translate(0,0)"/>
<path d="" fill="#5C5B5D" transform="translate(0,0)"/>
<path d="" fill="#5B5B5C" transform="translate(0,0)"/>
<path d="" fill="#5E5E5D" transform="translate(0,0)"/>
<path d="" fill="#5B5C5B" transform="translate(0,0)"/>
<path d="" fill="#5D605E" transform="translate(0,0)"/>
<path d="" fill="#6B6C6C" transform="translate(0,0)"/>
<path d="" fill="#5A5D5B" transform="translate(0,0)"/>
<path d="" fill="#5C5C5E" transform="translate(0,0)"/>
<path d="" fill="#6C6C6D" transform="translate(0,0)"/>
<path d="" fill="#595C5A" transform="translate(0,0)"/>
<path d="" fill="#605F61" transform="translate(0,0)"/>
<path d="" fill="#5C5D5D" transform="translate(0,0)"/>
<path d="" fill="#636564" transform="translate(0,0)"/>
<path d="" fill="#5F625F" transform="translate(0,0)"/>
<path d="" fill="#6C6E6E" transform="translate(0,0)"/>
<path d="" fill="#5B5D5D" transform="translate(0,0)"/>
<path d="" fill="#5E5E60" transform="translate(0,0)"/>
<path d="" fill="#606061" transform="translate(0,0)"/>
<path d="" fill="#606060" transform="translate(0,0)"/>
<path d="" fill="#606061" transform="translate(0,0)"/>
<path d="" fill="#656666" transform="translate(0,0)"/>
<path d="" fill="#686A6B" transform="translate(0,0)"/>
<path d="" fill="#6D6D70" transform="translate(0,0)"/>
<path d="" fill="#6E6F6F" transform="translate(0,0)"/>
<path d="" fill="#5D5F5F" transform="translate(0,0)"/>
<path d="" fill="#616163" transform="translate(0,0)"/>
<path d="" fill="#636264" transform="translate(0,0)"/>
<path d="" fill="#606161" transform="translate(0,0)"/>
<path d="" fill="#616262" transform="translate(0,0)"/>
<path d="" fill="#606061" transform="translate(0,0)"/>
<path d="" fill="#60605E" transform="translate(0,0)"/>
<path d="" fill="#5F6160" transform="translate(0,0)"/>
<path d="" fill="#666467" transform="translate(0,0)"/>
<path d="" fill="#5E6161" transform="translate(0,0)"/>
<path d="" fill="#626163" transform="translate(0,0)"/>
<path d="" fill="#646364" transform="translate(0,0)"/>
<path d="" fill="#656466" transform="translate(0,0)"/>
<path d="" fill="#61625F" transform="translate(0,0)"/>
<path d="" fill="#646665" transform="translate(0,0)"/>
<path d="" fill="#717171" transform="translate(0,0)"/>
<path d="" fill="#606361" transform="translate(0,0)"/>
<path d="" fill="#5F6060" transform="translate(0,0)"/>
<path d="" fill="#646466" transform="translate(0,0)"/>
<path d="" fill="#656567" transform="translate(0,0)"/>
<path d="" fill="#676868" transform="translate(0,0)"/>
<path d="" fill="#666666" transform="translate(0,0)"/>
<path d="" fill="#616465" transform="translate(0,0)"/>
<path d="" fill="#626463" transform="translate(0,0)"/>
<path d="" fill="#656866" transform="translate(0,0)"/>
<path d="" fill="#616464" transform="translate(0,0)"/>
<path d="" fill="#666667" transform="translate(0,0)"/>
<path d="" fill="#676669" transform="translate(0,0)"/>
<path d="" fill="#646566" transform="translate(0,0)"/>
<path d="" fill="#696868" transform="translate(0,0)"/>
<path d="" fill="#636566" transform="translate(0,0)"/>
<path d="" fill="#656766" transform="translate(0,0)"/>
<path d="" fill="#686968" transform="translate(0,0)"/>
<path d="" fill="#737373" transform="translate(0,0)"/>
<path d="" fill="#626565" transform="translate(0,0)"/>
<path d="" fill="#67676A" transform="translate(0,0)"/>
<path d="" fill="#686869" transform="translate(0,0)"/>
<path d="" fill="#6B6A6D" transform="translate(0,0)"/>
<path d="" fill="#706F72" transform="translate(0,0)"/>
<path d="" fill="#636767" transform="translate(0,0)"/>
<path d="" fill="#686869" transform="translate(0,0)"/>
<path d="" fill="#676868" transform="translate(0,0)"/>
<path d="" fill="#666665" transform="translate(0,0)"/>
<path d="" fill="#676767" transform="translate(0,0)"/>
</svg>
